G04*
G04 #@! TF.GenerationSoftware,Altium Limited,Altium Designer,26.5.0 (11)*
G04*
G04 Layer_Color=65535*
G04 Board_Origin=0|0*
%FSLAX25Y25*%
%MOIN*%
G70*
G04*
G04 #@! TF.SameCoordinates,D4FFE766-1EB8-4C6C-B99A-8E18D8F99528*
G04*
G04*
G04 #@! TF.FilePolarity,Positive*
G04*
G01*
G75*
%ADD10C,0.00787*%
%ADD11C,0.00600*%
%ADD12C,0.00500*%
%ADD13C,0.01000*%
%ADD14C,0.01500*%
%ADD15R,0.01600X0.05600*%
D10*
X837744Y719642D02*
G03*
X837744Y719642I-394J0D01*
G01*
X648894Y964500D02*
G03*
X648894Y964500I-394J0D01*
G01*
X648807Y899500D02*
G03*
X648807Y899500I-394J0D01*
G01*
X882894Y975500D02*
G03*
X882894Y975500I-394J0D01*
G01*
X891894Y863500D02*
G03*
X891894Y863500I-394J0D01*
G01*
X883244Y1030642D02*
G03*
X883244Y1030642I-394J0D01*
G01*
X697394Y719500D02*
G03*
X697394Y719500I-394J0D01*
G01*
Y774500D02*
G03*
X697394Y774500I-394J0D01*
G01*
X697744Y884642D02*
G03*
X697744Y884642I-394J0D01*
G01*
Y829358D02*
G03*
X697744Y829358I-394J0D01*
G01*
X865894Y548000D02*
G03*
X865894Y548000I-394J0D01*
G01*
X767744Y829642D02*
G03*
X767744Y829642I-394J0D01*
G01*
X767394Y774500D02*
G03*
X767394Y774500I-394J0D01*
G01*
X767744Y719642D02*
G03*
X767744Y719642I-394J0D01*
G01*
X836744Y829142D02*
G03*
X836744Y829142I-394J0D01*
G01*
Y774642D02*
G03*
X836744Y774642I-394J0D01*
G01*
X767744Y884642D02*
G03*
X767744Y884642I-394J0D01*
G01*
X836894Y884598D02*
G03*
X836894Y884598I-394J0D01*
G01*
X874894Y593000D02*
G03*
X874894Y593000I-394J0D01*
G01*
X771394Y544500D02*
G03*
X771394Y544500I-394J0D01*
G01*
X810394Y922500D02*
G03*
X810394Y922500I-394J0D01*
G01*
X847728Y722453D02*
X869972D01*
X870661Y705819D02*
Y715465D01*
X847728Y698831D02*
X869972D01*
X847039Y705819D02*
Y715465D01*
X892878Y978311D02*
X915122D01*
X915811Y961677D02*
Y971323D01*
X892878Y954689D02*
X915122D01*
X892189Y961677D02*
Y971323D01*
X903323Y840811D02*
X918677D01*
X903323Y867189D02*
X918677D01*
Y840811D02*
Y867189D01*
X903323Y840811D02*
Y867189D01*
X893228Y1033453D02*
X915472D01*
X916161Y1016819D02*
Y1026465D01*
X893228Y1009831D02*
X915472D01*
X892539Y1016819D02*
Y1026465D01*
X707378Y722311D02*
X729622D01*
X730311Y705677D02*
Y715323D01*
X707378Y698689D02*
X729622D01*
X706689Y705677D02*
Y715323D01*
X707378Y777311D02*
X729622D01*
X730311Y760677D02*
Y770323D01*
X707378Y753689D02*
X729622D01*
X706689Y760677D02*
Y770323D01*
X707728Y887453D02*
X729972D01*
X730661Y870819D02*
Y880465D01*
X707728Y863831D02*
X729972D01*
X707039Y870819D02*
Y880465D01*
X707728Y832169D02*
X729972D01*
X730661Y815535D02*
Y825181D01*
X707728Y808547D02*
X729972D01*
X707039Y815535D02*
Y825181D01*
X777728Y832453D02*
X799972D01*
X800661Y815819D02*
Y825465D01*
X777728Y808831D02*
X799972D01*
X777039Y815819D02*
Y825465D01*
X777378Y777311D02*
X799622D01*
X800311Y760677D02*
Y770323D01*
X777378Y753689D02*
X799622D01*
X776689Y760677D02*
Y770323D01*
X777728Y722453D02*
X799972D01*
X800661Y705819D02*
Y715465D01*
X777728Y698831D02*
X799972D01*
X777039Y705819D02*
Y715465D01*
X846728Y831953D02*
X868972D01*
X869661Y815319D02*
Y824965D01*
X846728Y808331D02*
X868972D01*
X846039Y815319D02*
Y824965D01*
X846728Y777453D02*
X868972D01*
X869661Y760819D02*
Y770465D01*
X846728Y753831D02*
X868972D01*
X846039Y760819D02*
Y770465D01*
X777728Y887453D02*
X799972D01*
X800661Y870819D02*
Y880465D01*
X777728Y863831D02*
X799972D01*
X777039Y870819D02*
Y880465D01*
X846878Y887409D02*
X869122D01*
X869811Y870776D02*
Y880421D01*
X846878Y863787D02*
X869122D01*
X846189Y870776D02*
Y880421D01*
X805992Y514811D02*
Y517665D01*
Y529280D02*
Y534201D01*
X770008Y514811D02*
X805992D01*
X770008D02*
Y517665D01*
Y529280D02*
Y534201D01*
D11*
X733750Y889643D02*
Y897042D01*
Y889643D02*
X737950D01*
Y897042D01*
X733750D02*
X737950D01*
X655099Y899100D02*
X662499D01*
X655099Y894900D02*
Y899100D01*
Y894900D02*
X662499D01*
Y899100D01*
X731950Y889643D02*
Y897042D01*
X727750D02*
X731950D01*
X727750Y889643D02*
Y897042D01*
Y889643D02*
X731950D01*
X718450Y893742D02*
X725850D01*
X718450Y889542D02*
Y893742D01*
Y889542D02*
X725850D01*
Y893742D01*
X801950Y889643D02*
Y897042D01*
X797750D02*
X801950D01*
X797750Y889643D02*
Y897042D01*
Y889643D02*
X801950D01*
X857599Y893698D02*
X864999D01*
X857599Y889498D02*
Y893698D01*
Y889498D02*
X864999D01*
Y893698D01*
X788150Y893742D02*
X795550D01*
X788150Y889542D02*
Y893742D01*
Y889542D02*
X795550D01*
Y893742D01*
X872900Y889599D02*
Y896999D01*
Y889599D02*
X877100D01*
Y896999D01*
X872900D02*
X877100D01*
X871100Y889599D02*
Y896999D01*
X866900D02*
X871100D01*
X866900Y889599D02*
Y896999D01*
Y889599D02*
X871100D01*
X803750Y889643D02*
Y897042D01*
Y889643D02*
X807950D01*
Y897042D01*
X803750D02*
X807950D01*
X792100Y909700D02*
X799900D01*
Y914300D01*
X792100D02*
X799900D01*
X792100Y909700D02*
Y914300D01*
X780001Y914100D02*
X787401D01*
Y909900D02*
Y914100D01*
X780001Y909900D02*
X787401D01*
X780001D02*
Y914100D01*
X780000Y902400D02*
X787400D01*
Y898200D02*
Y902400D01*
X780000Y898200D02*
X787400D01*
X780000D02*
Y902400D01*
X662600Y883501D02*
Y890901D01*
X658400D02*
X662600D01*
X658400Y883501D02*
Y890901D01*
Y883501D02*
X662600D01*
X666400D02*
Y890901D01*
Y883501D02*
X670600D01*
Y890901D01*
X666400D02*
X670600D01*
X651023Y943100D02*
X653000D01*
X645197D02*
X645803D01*
X638000Y957900D02*
X639977D01*
X645197D02*
X645803D01*
X651023D02*
X653000D01*
Y943100D02*
Y957900D01*
X638000Y943100D02*
X639977D01*
X638000D02*
Y957900D01*
X658400Y949001D02*
X662600D01*
X658400D02*
Y956401D01*
X662600D01*
Y949001D02*
Y956401D01*
X666400Y956499D02*
X670600D01*
Y949099D02*
Y956499D01*
X666400Y949099D02*
X670600D01*
X666400D02*
Y956499D01*
X662499Y960400D02*
Y964600D01*
X655099Y960400D02*
X662499D01*
X655099D02*
Y964600D01*
X662499D01*
X884700Y856520D02*
Y864921D01*
X889300D01*
Y856520D02*
Y864921D01*
X884700Y856520D02*
X889300D01*
X788450Y838742D02*
X795850D01*
X788450Y834542D02*
Y838742D01*
Y834542D02*
X795850D01*
Y838742D01*
X788099Y783600D02*
X795499D01*
X788099Y779400D02*
Y783600D01*
Y779400D02*
X795499D01*
Y783600D01*
X788099Y728600D02*
X795499D01*
X788099Y724400D02*
Y728600D01*
Y724400D02*
X795499D01*
Y728600D01*
X637913Y878100D02*
Y892900D01*
Y878100D02*
X639890D01*
X652913D02*
Y892900D01*
X650937D02*
X652913D01*
X645110D02*
X645717D01*
X637913D02*
X639890D01*
X645110Y878100D02*
X645717D01*
X650937D02*
X652913D01*
X886700Y544500D02*
Y549500D01*
X877200D02*
X886700D01*
X877200Y544500D02*
X886700D01*
X877100Y544600D02*
Y549500D01*
X893300Y842521D02*
Y850920D01*
X888700Y842521D02*
X893300D01*
X888700D02*
Y850920D01*
X893300D01*
X887300Y842521D02*
Y850920D01*
X882700Y842521D02*
X887300D01*
X882700D02*
Y850920D01*
X887300D01*
X870801Y567200D02*
X878601D01*
Y571800D01*
X870801D02*
X878601D01*
X870801Y567200D02*
Y571800D01*
X875200Y545000D02*
Y552400D01*
X871000Y545000D02*
X875200D01*
X871000D02*
Y552400D01*
X875200D01*
X904001Y1039600D02*
X911401D01*
X904001Y1035400D02*
Y1039600D01*
Y1035400D02*
X911401D01*
Y1039600D01*
X903599Y984600D02*
X910999D01*
X903599Y980400D02*
Y984600D01*
Y980400D02*
X910999D01*
Y984600D01*
X917100Y1035501D02*
Y1042901D01*
X912900D02*
X917100D01*
X912900Y1035501D02*
Y1042901D01*
Y1035501D02*
X917100D01*
X918900Y980501D02*
Y987901D01*
Y980501D02*
X923100D01*
Y987901D01*
X918900D02*
X923100D01*
X917100Y980501D02*
Y987901D01*
X912900D02*
X917100D01*
X912900Y980501D02*
Y987901D01*
Y980501D02*
X917100D01*
X918600Y1035501D02*
Y1042901D01*
Y1035501D02*
X922800D01*
Y1042901D01*
X918600D02*
X922800D01*
X731600Y724501D02*
Y731901D01*
X727400D02*
X731600D01*
X727400Y724501D02*
Y731901D01*
Y724501D02*
X731600D01*
X718099Y728600D02*
X725499D01*
X718099Y724400D02*
Y728600D01*
Y724400D02*
X725499D01*
Y728600D01*
X733400Y724501D02*
Y731901D01*
Y724501D02*
X737600D01*
Y731901D01*
X733400D02*
X737600D01*
X739600Y635599D02*
Y642999D01*
X735400D02*
X739600D01*
X735400Y635599D02*
Y642999D01*
Y635599D02*
X739600D01*
X735400Y643001D02*
Y650401D01*
Y643001D02*
X739600D01*
Y650401D01*
X735400D02*
X739600D01*
X731600Y779501D02*
Y786901D01*
X727400D02*
X731600D01*
X727400Y779501D02*
Y786901D01*
Y779501D02*
X731600D01*
X718099Y783600D02*
X725499D01*
X718099Y779400D02*
Y783600D01*
Y779400D02*
X725499D01*
Y783600D01*
X733400Y779501D02*
Y786901D01*
Y779501D02*
X737600D01*
Y786901D01*
X733400D02*
X737600D01*
X733400Y834217D02*
Y841617D01*
Y834217D02*
X737600D01*
Y841617D01*
X733400D02*
X737600D01*
X731600Y834217D02*
Y841617D01*
X727400D02*
X731600D01*
X727400Y834217D02*
Y841617D01*
Y834217D02*
X731600D01*
X718099Y838317D02*
X725499D01*
X718099Y834116D02*
Y838317D01*
Y834116D02*
X725499D01*
Y838317D01*
X690920Y603200D02*
Y607800D01*
X682520D02*
X690920D01*
X682520Y603200D02*
Y607800D01*
Y603200D02*
X690920D01*
Y596200D02*
Y600800D01*
X682520D02*
X690920D01*
X682520Y596200D02*
Y600800D01*
Y596200D02*
X690920D01*
X703501Y603400D02*
X710901D01*
Y607600D01*
X703501D02*
X710901D01*
X703501Y603400D02*
Y607600D01*
Y599100D02*
X710901D01*
X703501Y594900D02*
Y599100D01*
Y594900D02*
X710901D01*
Y599100D01*
X807300Y555800D02*
Y564200D01*
X802700Y555800D02*
X807300D01*
X802700D02*
Y564200D01*
X807300D01*
X802600Y546800D02*
X807300D01*
X807400D02*
Y553200D01*
X802600D02*
X807300D01*
X802600Y546800D02*
Y553200D01*
X842700Y555801D02*
X847300D01*
X842700D02*
Y563601D01*
X847300D01*
Y555801D02*
Y563601D01*
X850501Y541400D02*
X857901D01*
X850501D02*
Y545600D01*
X857901D01*
Y541400D02*
Y545600D01*
X854050Y547660D02*
X862150D01*
X854050Y552830D02*
Y555690D01*
Y560860D02*
X862150D01*
X795421Y552600D02*
Y557300D01*
X789020Y557400D02*
X795421D01*
X789020Y552600D02*
Y557300D01*
Y552600D02*
X795421D01*
X794599Y567100D02*
X801999D01*
Y562900D02*
Y567100D01*
X794599Y562900D02*
X801999D01*
X794599D02*
Y567100D01*
X703501Y590600D02*
X710901D01*
X703501Y586400D02*
Y590600D01*
Y586400D02*
X710901D01*
Y590600D01*
X783450Y562900D02*
Y567100D01*
X776050D02*
X783450D01*
X776050Y562900D02*
Y567100D01*
Y562900D02*
X783450D01*
X782520Y552700D02*
Y557400D01*
Y552600D02*
X788920D01*
Y552700D02*
Y557400D01*
X782520D02*
X788920D01*
X803750Y834643D02*
Y842043D01*
Y834643D02*
X807950D01*
Y842043D01*
X803750D02*
X807950D01*
X803400Y779501D02*
Y786901D01*
Y779501D02*
X807600D01*
Y786901D01*
X803400D02*
X807600D01*
X873750Y724643D02*
Y732043D01*
Y724643D02*
X877950D01*
Y732043D01*
X873750D02*
X877950D01*
X871950Y724643D02*
Y732043D01*
X867750D02*
X871950D01*
X867750Y724643D02*
Y732043D01*
Y724643D02*
X871950D01*
X858450Y728742D02*
X865850D01*
X858450Y724542D02*
Y728742D01*
Y724542D02*
X865850D01*
Y728742D01*
X857450Y783742D02*
X864850D01*
X857450Y779542D02*
Y783742D01*
Y779542D02*
X864850D01*
Y783742D01*
X857450Y838242D02*
X864850D01*
X857450Y834042D02*
Y838242D01*
Y834042D02*
X864850D01*
Y838242D01*
X870950Y834142D02*
Y841543D01*
X866750D02*
X870950D01*
X866750Y834142D02*
Y841543D01*
Y834142D02*
X870950D01*
X872750D02*
Y841543D01*
Y834142D02*
X876950D01*
Y841543D01*
X872750D02*
X876950D01*
X801600Y724501D02*
Y731901D01*
X797400D02*
X801600D01*
X797400Y724501D02*
Y731901D01*
Y724501D02*
X801600D01*
X803400D02*
Y731901D01*
Y724501D02*
X807600D01*
Y731901D01*
X803400D02*
X807600D01*
X872750Y779642D02*
Y787043D01*
Y779642D02*
X876950D01*
Y787043D01*
X872750D02*
X876950D01*
X870950Y779642D02*
Y787043D01*
X866750D02*
X870950D01*
X866750Y779642D02*
Y787043D01*
Y779642D02*
X870950D01*
X801950Y834643D02*
Y842043D01*
X797750D02*
X801950D01*
X797750Y834643D02*
Y842043D01*
Y834643D02*
X801950D01*
X801600Y779501D02*
Y786901D01*
X797400D02*
X801600D01*
X797400Y779501D02*
Y786901D01*
Y779501D02*
X801600D01*
X659068Y939266D02*
X658401Y938599D01*
Y937267D01*
X659068Y936600D01*
X661734D01*
X662400Y937267D01*
Y938599D01*
X661734Y939266D01*
X662400Y943264D02*
Y940599D01*
X659734Y943264D01*
X659068D01*
X658401Y942598D01*
Y941265D01*
X659068Y940599D01*
Y944597D02*
X658401Y945264D01*
Y946597D01*
X659068Y947263D01*
X659734D01*
X660401Y946597D01*
Y945930D01*
Y946597D01*
X661067Y947263D01*
X661734D01*
X662400Y946597D01*
Y945264D01*
X661734Y944597D01*
X670400Y936600D02*
X666401D01*
Y938599D01*
X667068Y939266D01*
X668401D01*
X669067Y938599D01*
Y936600D01*
Y937933D02*
X670400Y939266D01*
X667068Y940599D02*
X666401Y941265D01*
Y942598D01*
X667068Y943264D01*
X667734D01*
X668401Y942598D01*
Y941932D01*
Y942598D01*
X669067Y943264D01*
X669734D01*
X670400Y942598D01*
Y941265D01*
X669734Y940599D01*
X666401Y944597D02*
Y947263D01*
X667068D01*
X669734Y944597D01*
X670400D01*
X659068Y873266D02*
X658401Y872599D01*
Y871266D01*
X659068Y870600D01*
X661734D01*
X662400Y871266D01*
Y872599D01*
X661734Y873266D01*
X662400Y877264D02*
Y874599D01*
X659734Y877264D01*
X659068D01*
X658401Y876598D01*
Y875265D01*
X659068Y874599D01*
X662400Y881263D02*
Y878597D01*
X659734Y881263D01*
X659068D01*
X658401Y880597D01*
Y879264D01*
X659068Y878597D01*
X670400Y870600D02*
X666401D01*
Y872599D01*
X667068Y873266D01*
X668401D01*
X669067Y872599D01*
Y870600D01*
Y871933D02*
X670400Y873266D01*
X667068Y874599D02*
X666401Y875265D01*
Y876598D01*
X667068Y877264D01*
X667734D01*
X668401Y876598D01*
Y875932D01*
Y876598D01*
X669067Y877264D01*
X669734D01*
X670400Y876598D01*
Y875265D01*
X669734Y874599D01*
X666401Y881263D02*
Y878597D01*
X668401D01*
X667734Y879930D01*
Y880597D01*
X668401Y881263D01*
X669734D01*
X670400Y880597D01*
Y879264D01*
X669734Y878597D01*
X731750Y843458D02*
X727752D01*
Y845458D01*
X728418Y846124D01*
X729751D01*
X730417Y845458D01*
Y843458D01*
Y844791D02*
X731750Y846124D01*
Y850123D02*
Y847457D01*
X729085Y850123D01*
X728418D01*
X727752Y849456D01*
Y848123D01*
X728418Y847457D01*
X731750Y851456D02*
Y852789D01*
Y852122D01*
X727752D01*
X728418Y851456D01*
X734418Y846624D02*
X733752Y845958D01*
Y844625D01*
X734418Y843958D01*
X737084D01*
X737750Y844625D01*
Y845958D01*
X737084Y846624D01*
X737750Y847957D02*
Y849290D01*
Y848623D01*
X733752D01*
X734418Y847957D01*
X733752Y853955D02*
Y851289D01*
X735751D01*
X735085Y852622D01*
Y853289D01*
X735751Y853955D01*
X737084D01*
X737750Y853289D01*
Y851956D01*
X737084Y851289D01*
X734418Y901908D02*
X733752Y901241D01*
Y899908D01*
X734418Y899242D01*
X737084D01*
X737750Y899908D01*
Y901241D01*
X737084Y901908D01*
X737750Y903240D02*
Y904573D01*
Y903907D01*
X733752D01*
X734418Y903240D01*
X737750Y908572D02*
X733752D01*
X735751Y906573D01*
Y909239D01*
X731750Y898742D02*
X727752D01*
Y900741D01*
X728418Y901408D01*
X729751D01*
X730417Y900741D01*
Y898742D01*
Y900075D02*
X731750Y901408D01*
Y902740D02*
Y904073D01*
Y903407D01*
X727752D01*
X728418Y902740D01*
X731084Y906073D02*
X731750Y906739D01*
Y908072D01*
X731084Y908739D01*
X728418D01*
X727752Y908072D01*
Y906739D01*
X728418Y906073D01*
X729085D01*
X729751Y906739D01*
Y908739D01*
X731400Y788600D02*
X727401D01*
Y790599D01*
X728068Y791266D01*
X729401D01*
X730067Y790599D01*
Y788600D01*
Y789933D02*
X731400Y791266D01*
Y795264D02*
Y792599D01*
X728734Y795264D01*
X728068D01*
X727401Y794598D01*
Y793265D01*
X728068Y792599D01*
Y796597D02*
X727401Y797264D01*
Y798597D01*
X728068Y799263D01*
X728734D01*
X729401Y798597D01*
Y797930D01*
Y798597D01*
X730067Y799263D01*
X730734D01*
X731400Y798597D01*
Y797264D01*
X730734Y796597D01*
X734068Y791766D02*
X733401Y791099D01*
Y789766D01*
X734068Y789100D01*
X736734D01*
X737400Y789766D01*
Y791099D01*
X736734Y791766D01*
X737400Y793099D02*
Y794432D01*
Y793765D01*
X733401D01*
X734068Y793099D01*
X733401Y799097D02*
X734068Y797764D01*
X735401Y796431D01*
X736734D01*
X737400Y797097D01*
Y798430D01*
X736734Y799097D01*
X736067D01*
X735401Y798430D01*
Y796431D01*
X801750Y843742D02*
X797752D01*
Y845741D01*
X798418Y846408D01*
X799751D01*
X800418Y845741D01*
Y843742D01*
Y845075D02*
X801750Y846408D01*
Y847740D02*
Y849073D01*
Y848407D01*
X797752D01*
X798418Y847740D01*
Y851073D02*
X797752Y851739D01*
Y853072D01*
X798418Y853738D01*
X799085D01*
X799751Y853072D01*
Y852406D01*
Y853072D01*
X800418Y853738D01*
X801084D01*
X801750Y853072D01*
Y851739D01*
X801084Y851073D01*
X804418Y846908D02*
X803752Y846241D01*
Y844908D01*
X804418Y844242D01*
X807084D01*
X807750Y844908D01*
Y846241D01*
X807084Y846908D01*
X807750Y848240D02*
Y849573D01*
Y848907D01*
X803752D01*
X804418Y848240D01*
X807750Y851573D02*
Y852906D01*
Y852239D01*
X803752D01*
X804418Y851573D01*
X801400Y788600D02*
X797401D01*
Y790599D01*
X798068Y791266D01*
X799401D01*
X800067Y790599D01*
Y788600D01*
Y789933D02*
X801400Y791266D01*
Y792599D02*
Y793932D01*
Y793265D01*
X797401D01*
X798068Y792599D01*
X797401Y798597D02*
Y795931D01*
X799401D01*
X798734Y797264D01*
Y797930D01*
X799401Y798597D01*
X800734D01*
X801400Y797930D01*
Y796597D01*
X800734Y795931D01*
X804068Y791766D02*
X803401Y791099D01*
Y789766D01*
X804068Y789100D01*
X806734D01*
X807400Y789766D01*
Y791099D01*
X806734Y791766D01*
X807400Y793099D02*
Y794432D01*
Y793765D01*
X803401D01*
X804068Y793099D01*
X807400Y799097D02*
Y796431D01*
X804734Y799097D01*
X804068D01*
X803401Y798430D01*
Y797097D01*
X804068Y796431D01*
X731400Y733600D02*
X727401D01*
Y735599D01*
X728068Y736266D01*
X729401D01*
X730067Y735599D01*
Y733600D01*
Y734933D02*
X731400Y736266D01*
Y740265D02*
Y737599D01*
X728734Y740265D01*
X728068D01*
X727401Y739598D01*
Y738265D01*
X728068Y737599D01*
X727401Y744263D02*
Y741597D01*
X729401D01*
X728734Y742930D01*
Y743597D01*
X729401Y744263D01*
X730734D01*
X731400Y743597D01*
Y742264D01*
X730734Y741597D01*
X734068Y736766D02*
X733401Y736099D01*
Y734766D01*
X734068Y734100D01*
X736734D01*
X737400Y734766D01*
Y736099D01*
X736734Y736766D01*
X737400Y738099D02*
Y739432D01*
Y738765D01*
X733401D01*
X734068Y738099D01*
X733401Y741431D02*
Y744097D01*
X734068D01*
X736734Y741431D01*
X737400D01*
X801750Y733742D02*
X797752D01*
Y735741D01*
X798418Y736408D01*
X799751D01*
X800418Y735741D01*
Y733742D01*
Y735075D02*
X801750Y736408D01*
Y737740D02*
Y739073D01*
Y738407D01*
X797752D01*
X798418Y737740D01*
X797752Y741073D02*
Y743739D01*
X798418D01*
X801084Y741073D01*
X801750D01*
X804418Y736907D02*
X803752Y736241D01*
Y734908D01*
X804418Y734242D01*
X807084D01*
X807750Y734908D01*
Y736241D01*
X807084Y736907D01*
X807750Y738240D02*
Y739573D01*
Y738907D01*
X803752D01*
X804418Y738240D01*
Y741573D02*
X803752Y742239D01*
Y743572D01*
X804418Y744239D01*
X805085D01*
X805751Y743572D01*
Y742906D01*
Y743572D01*
X806417Y744239D01*
X807084D01*
X807750Y743572D01*
Y742239D01*
X807084Y741573D01*
X874418Y736907D02*
X873752Y736241D01*
Y734908D01*
X874418Y734242D01*
X877084D01*
X877750Y734908D01*
Y736241D01*
X877084Y736907D01*
X877750Y738240D02*
Y739573D01*
Y738907D01*
X873752D01*
X874418Y738240D01*
Y741573D02*
X873752Y742239D01*
Y743572D01*
X874418Y744239D01*
X875085D01*
X875751Y743572D01*
X876418Y744239D01*
X877084D01*
X877750Y743572D01*
Y742239D01*
X877084Y741573D01*
X876418D01*
X875751Y742239D01*
X875085Y741573D01*
X874418D01*
X875751Y742239D02*
Y743572D01*
X871750Y733742D02*
X867752D01*
Y735741D01*
X868418Y736408D01*
X869751D01*
X870417Y735741D01*
Y733742D01*
Y735075D02*
X871750Y736408D01*
Y740406D02*
Y737740D01*
X869085Y740406D01*
X868418D01*
X867752Y739740D01*
Y738407D01*
X868418Y737740D01*
X867752Y741739D02*
Y744405D01*
X868418D01*
X871084Y741739D01*
X871750D01*
X870750Y788742D02*
X866752D01*
Y790741D01*
X867418Y791407D01*
X868751D01*
X869417Y790741D01*
Y788742D01*
Y790075D02*
X870750Y791407D01*
X870084Y792740D02*
X870750Y793407D01*
Y794740D01*
X870084Y795406D01*
X867418D01*
X866752Y794740D01*
Y793407D01*
X867418Y792740D01*
X868085D01*
X868751Y793407D01*
Y795406D01*
X873418Y791908D02*
X872752Y791241D01*
Y789908D01*
X873418Y789242D01*
X876084D01*
X876750Y789908D01*
Y791241D01*
X876084Y791908D01*
Y793240D02*
X876750Y793907D01*
Y795240D01*
X876084Y795906D01*
X873418D01*
X872752Y795240D01*
Y793907D01*
X873418Y793240D01*
X874085D01*
X874751Y793907D01*
Y795906D01*
X873568Y846266D02*
X872901Y845599D01*
Y844267D01*
X873568Y843600D01*
X876233D01*
X876900Y844267D01*
Y845599D01*
X876233Y846266D01*
X876900Y847599D02*
Y848932D01*
Y848265D01*
X872901D01*
X873568Y847599D01*
X876233Y850931D02*
X876900Y851597D01*
Y852930D01*
X876233Y853597D01*
X873568D01*
X872901Y852930D01*
Y851597D01*
X873568Y850931D01*
X874234D01*
X874901Y851597D01*
Y853597D01*
X870900Y843600D02*
X866901D01*
Y845599D01*
X867568Y846266D01*
X868901D01*
X869567Y845599D01*
Y843600D01*
Y844933D02*
X870900Y846266D01*
Y850264D02*
Y847599D01*
X868234Y850264D01*
X867568D01*
X866901Y849598D01*
Y848265D01*
X867568Y847599D01*
X870234Y851597D02*
X870900Y852264D01*
Y853597D01*
X870234Y854263D01*
X867568D01*
X866901Y853597D01*
Y852264D01*
X867568Y851597D01*
X868234D01*
X868901Y852264D01*
Y854263D01*
X873568Y901864D02*
X872901Y901198D01*
Y899865D01*
X873568Y899198D01*
X876233D01*
X876900Y899865D01*
Y901198D01*
X876233Y901864D01*
X876900Y905863D02*
Y903197D01*
X874234Y905863D01*
X873568D01*
X872901Y905196D01*
Y903864D01*
X873568Y903197D01*
Y907196D02*
X872901Y907862D01*
Y909195D01*
X873568Y909862D01*
X876233D01*
X876900Y909195D01*
Y907862D01*
X876233Y907196D01*
X873568D01*
X870900Y898698D02*
X866901D01*
Y900698D01*
X867568Y901364D01*
X868901D01*
X869567Y900698D01*
Y898698D01*
Y900031D02*
X870900Y901364D01*
X867568Y902697D02*
X866901Y903364D01*
Y904696D01*
X867568Y905363D01*
X868234D01*
X868901Y904696D01*
Y904030D01*
Y904696D01*
X869567Y905363D01*
X870234D01*
X870900Y904696D01*
Y903364D01*
X870234Y902697D01*
X870900Y906696D02*
Y908029D01*
Y907362D01*
X866901D01*
X867568Y906696D01*
X900099Y912099D02*
X898767D01*
X898100Y911432D01*
Y908766D01*
X898767Y908100D01*
X900099D01*
X900766Y908766D01*
Y911432D01*
X900099Y912099D01*
X902099Y908100D02*
Y912099D01*
X904764Y908100D01*
Y912099D01*
X898599Y931599D02*
X897266D01*
X896600Y930932D01*
Y928267D01*
X897266Y927600D01*
X898599D01*
X899266Y928267D01*
Y930932D01*
X898599Y931599D01*
X903265D02*
X900599D01*
Y929599D01*
X901932D01*
X900599D01*
Y927600D01*
X907263Y931599D02*
X904597D01*
Y929599D01*
X905930D01*
X904597D01*
Y927600D01*
X715266Y695432D02*
X714599Y696099D01*
X713266D01*
X712600Y695432D01*
Y694766D01*
X713266Y694099D01*
X714599D01*
X715266Y693433D01*
Y692766D01*
X714599Y692100D01*
X713266D01*
X712600Y692766D01*
X716599Y696099D02*
Y692100D01*
X717932Y693433D01*
X719265Y692100D01*
Y696099D01*
X720597Y692100D02*
X721930D01*
X721264D01*
Y696099D01*
X720597Y695432D01*
X723930Y692100D02*
X725263D01*
X724596D01*
Y696099D01*
X723930Y695432D01*
X809100Y533599D02*
Y530266D01*
X809766Y529600D01*
X811099D01*
X811766Y530266D01*
Y533599D01*
X815765Y532932D02*
X815098Y533599D01*
X813765D01*
X813099Y532932D01*
Y532266D01*
X813765Y531599D01*
X815098D01*
X815765Y530933D01*
Y530266D01*
X815098Y529600D01*
X813765D01*
X813099Y530266D01*
X817097Y533599D02*
Y529600D01*
X819097D01*
X819763Y530266D01*
Y530933D01*
X819097Y531599D01*
X817097D01*
X819097D01*
X819763Y532266D01*
Y532932D01*
X819097Y533599D01*
X817097D01*
X823762Y532932D02*
X823096Y533599D01*
X821763D01*
X821096Y532932D01*
Y530266D01*
X821763Y529600D01*
X823096D01*
X823762Y530266D01*
X866401Y593100D02*
X869067D01*
X870400Y594433D01*
X869067Y595766D01*
X866401D01*
Y597099D02*
X870400D01*
Y599098D01*
X869734Y599764D01*
X869067D01*
X868401Y599098D01*
Y597099D01*
Y599098D01*
X867734Y599764D01*
X867068D01*
X866401Y599098D01*
Y597099D01*
X870400Y601097D02*
X867734D01*
X866401Y602430D01*
X867734Y603763D01*
X870400D01*
X868401D01*
Y601097D01*
X866401Y605096D02*
Y607762D01*
Y606429D01*
X870400D01*
X858568Y595766D02*
X857901Y595099D01*
Y593766D01*
X858568Y593100D01*
X861234D01*
X861900Y593766D01*
Y595099D01*
X861234Y595766D01*
X859901D01*
Y594433D01*
X861900Y597099D02*
X857901D01*
X861900Y599764D01*
X857901D01*
Y601097D02*
X861900D01*
Y603097D01*
X861234Y603763D01*
X858568D01*
X857901Y603097D01*
Y601097D01*
X854100Y566599D02*
Y563266D01*
X854766Y562600D01*
X856099D01*
X856766Y563266D01*
Y566599D01*
X858099Y565932D02*
X858765Y566599D01*
X860098D01*
X860765Y565932D01*
Y565266D01*
X860098Y564599D01*
X859432D01*
X860098D01*
X860765Y563933D01*
Y563266D01*
X860098Y562600D01*
X858765D01*
X858099Y563266D01*
X880266Y591099D02*
X878933D01*
X879599D01*
Y587766D01*
X878933Y587100D01*
X878267D01*
X877600Y587766D01*
X884264Y587100D02*
X881599D01*
X884264Y589766D01*
Y590432D01*
X883598Y591099D01*
X882265D01*
X881599Y590432D01*
X883266Y570932D02*
X882599Y571599D01*
X881266D01*
X880600Y570932D01*
Y568266D01*
X881266Y567600D01*
X882599D01*
X883266Y568266D01*
X887265Y567600D02*
X884599D01*
X887265Y570266D01*
Y570932D01*
X886598Y571599D01*
X885265D01*
X884599Y570932D01*
X891263Y571599D02*
X888597D01*
Y569599D01*
X889930Y570266D01*
X890597D01*
X891263Y569599D01*
Y568266D01*
X890597Y567600D01*
X889264D01*
X888597Y568266D01*
X843568Y568266D02*
X842901Y567599D01*
Y566266D01*
X843568Y565600D01*
X846233D01*
X846900Y566266D01*
Y567599D01*
X846233Y568266D01*
X846900Y572264D02*
Y569599D01*
X844234Y572264D01*
X843568D01*
X842901Y571598D01*
Y570265D01*
X843568Y569599D01*
X842901Y576263D02*
X843568Y574930D01*
X844901Y573597D01*
X846233D01*
X846900Y574264D01*
Y575597D01*
X846233Y576263D01*
X845567D01*
X844901Y575597D01*
Y573597D01*
X874900Y554100D02*
X870901D01*
Y556099D01*
X871568Y556766D01*
X872901D01*
X873567Y556099D01*
Y554100D01*
Y555433D02*
X874900Y556766D01*
Y560098D02*
X870901D01*
X872901Y558099D01*
Y560765D01*
X874900Y562097D02*
Y563430D01*
Y562764D01*
X870901D01*
X871568Y562097D01*
X888600Y549099D02*
Y545100D01*
X890599D01*
X891266Y545766D01*
Y548432D01*
X890599Y549099D01*
X888600D01*
X894598Y545100D02*
Y549099D01*
X892599Y547099D01*
X895265D01*
X838100Y541600D02*
Y545599D01*
X840099D01*
X840766Y544932D01*
Y543599D01*
X840099Y542933D01*
X838100D01*
X839433D02*
X840766Y541600D01*
X844098D02*
Y545599D01*
X842099Y543599D01*
X844765D01*
X848763Y541600D02*
X846097D01*
X848763Y544266D01*
Y544932D01*
X848097Y545599D01*
X846764D01*
X846097Y544932D01*
X756600Y535600D02*
Y539599D01*
X758599D01*
X759266Y538932D01*
Y537599D01*
X758599Y536933D01*
X756600D01*
X757933D02*
X759266Y535600D01*
X762598D02*
Y539599D01*
X760599Y537599D01*
X763265D01*
X764597Y538932D02*
X765264Y539599D01*
X766597D01*
X767263Y538932D01*
Y538266D01*
X766597Y537599D01*
X765930D01*
X766597D01*
X767263Y536933D01*
Y536266D01*
X766597Y535600D01*
X765264D01*
X764597Y536266D01*
X789600Y550599D02*
Y546600D01*
X791599D01*
X792266Y547266D01*
Y549932D01*
X791599Y550599D01*
X789600D01*
X793599Y549932D02*
X794265Y550599D01*
X795598D01*
X796265Y549932D01*
Y549266D01*
X795598Y548599D01*
X794932D01*
X795598D01*
X796265Y547933D01*
Y547266D01*
X795598Y546600D01*
X794265D01*
X793599Y547266D01*
X774100Y557099D02*
Y553100D01*
X776099D01*
X776766Y553766D01*
Y556432D01*
X776099Y557099D01*
X774100D01*
X780764Y553100D02*
X778099D01*
X780764Y555766D01*
Y556432D01*
X780098Y557099D01*
X778765D01*
X778099Y556432D01*
X809100Y552099D02*
Y548100D01*
X811099D01*
X811766Y548766D01*
Y551432D01*
X811099Y552099D01*
X809100D01*
X813099Y548100D02*
X814432D01*
X813765D01*
Y552099D01*
X813099Y551432D01*
X811766Y561432D02*
X811099Y562099D01*
X809766D01*
X809100Y561432D01*
Y558766D01*
X809766Y558100D01*
X811099D01*
X811766Y558766D01*
X813099Y561432D02*
X813765Y562099D01*
X815098D01*
X815765Y561432D01*
Y560766D01*
X815098Y560099D01*
X814432D01*
X815098D01*
X815765Y559433D01*
Y558766D01*
X815098Y558100D01*
X813765D01*
X813099Y558766D01*
X794600Y569100D02*
Y573099D01*
X796599D01*
X797266Y572432D01*
Y571099D01*
X796599Y570433D01*
X794600D01*
X795933D02*
X797266Y569100D01*
X798599Y572432D02*
X799265Y573099D01*
X800598D01*
X801264Y572432D01*
Y571766D01*
X800598Y571099D01*
X799932D01*
X800598D01*
X801264Y570433D01*
Y569766D01*
X800598Y569100D01*
X799265D01*
X798599Y569766D01*
X776100Y569100D02*
Y573099D01*
X778099D01*
X778766Y572432D01*
Y571099D01*
X778099Y570433D01*
X776100D01*
X777433D02*
X778766Y569100D01*
X782098D02*
Y573099D01*
X780099Y571099D01*
X782764D01*
X676766Y599932D02*
X676099Y600599D01*
X674766D01*
X674100Y599932D01*
Y597266D01*
X674766Y596600D01*
X676099D01*
X676766Y597266D01*
X680764Y596600D02*
X678099D01*
X680764Y599266D01*
Y599932D01*
X680098Y600599D01*
X678765D01*
X678099Y599932D01*
X677766Y606932D02*
X677099Y607599D01*
X675766D01*
X675100Y606932D01*
Y604266D01*
X675766Y603600D01*
X677099D01*
X677766Y604266D01*
X679099Y603600D02*
X680432D01*
X679765D01*
Y607599D01*
X679099Y606932D01*
X713100Y586600D02*
Y590599D01*
X715099D01*
X715766Y589932D01*
Y588599D01*
X715099Y587933D01*
X713100D01*
X714433D02*
X715766Y586600D01*
X719098D02*
Y590599D01*
X717099Y588599D01*
X719765D01*
X723097Y586600D02*
Y590599D01*
X721097Y588599D01*
X723763D01*
X715266Y598432D02*
X714599Y599099D01*
X713266D01*
X712600Y598432D01*
Y595766D01*
X713266Y595100D01*
X714599D01*
X715266Y595766D01*
X719265Y595100D02*
X716599D01*
X719265Y597766D01*
Y598432D01*
X718598Y599099D01*
X717265D01*
X716599Y598432D01*
X720597Y599099D02*
X723263D01*
Y598432D01*
X720597Y595766D01*
Y595100D01*
X712600Y603600D02*
Y607599D01*
X714599D01*
X715266Y606932D01*
Y605599D01*
X714599Y604933D01*
X712600D01*
X713933D02*
X715266Y603600D01*
X718598D02*
Y607599D01*
X716599Y605599D01*
X719265D01*
X720597Y606932D02*
X721264Y607599D01*
X722597D01*
X723263Y606932D01*
Y606266D01*
X722597Y605599D01*
X721930D01*
X722597D01*
X723263Y604933D01*
Y604266D01*
X722597Y603600D01*
X721264D01*
X720597Y604266D01*
X741600Y646600D02*
Y650599D01*
X743599D01*
X744266Y649932D01*
Y648599D01*
X743599Y647933D01*
X741600D01*
X742933D02*
X744266Y646600D01*
X748265D02*
X745599D01*
X748265Y649266D01*
Y649932D01*
X747598Y650599D01*
X746265D01*
X745599Y649932D01*
X741600Y635600D02*
Y639599D01*
X743599D01*
X744266Y638932D01*
Y637599D01*
X743599Y636933D01*
X741600D01*
X742933D02*
X744266Y635600D01*
X745599D02*
X746932D01*
X746265D01*
Y639599D01*
X745599Y638932D01*
X845950Y724742D02*
Y728740D01*
X847950D01*
X848616Y728074D01*
Y726741D01*
X847950Y726075D01*
X845950D01*
X847283D02*
X848616Y724742D01*
X852615D02*
X849949D01*
X852615Y727408D01*
Y728074D01*
X851949Y728740D01*
X850616D01*
X849949Y728074D01*
X853948D02*
X854614Y728740D01*
X855947D01*
X856614Y728074D01*
Y727408D01*
X855947Y726741D01*
X856614Y726075D01*
Y725408D01*
X855947Y724742D01*
X854614D01*
X853948Y725408D01*
Y726075D01*
X854614Y726741D01*
X853948Y727408D01*
Y728074D01*
X854614Y726741D02*
X855947D01*
X856266Y695932D02*
X855599Y696599D01*
X854266D01*
X853600Y695932D01*
Y695266D01*
X854266Y694599D01*
X855599D01*
X856266Y693933D01*
Y693266D01*
X855599Y692600D01*
X854266D01*
X853600Y693266D01*
X857599Y696599D02*
Y692600D01*
X858932Y693933D01*
X860264Y692600D01*
Y696599D01*
X861597Y692600D02*
X862930D01*
X862264D01*
Y696599D01*
X861597Y695932D01*
X867595Y692600D02*
X864930D01*
X867595Y695266D01*
Y695932D01*
X866929Y696599D01*
X865596D01*
X864930Y695932D01*
X775950Y724742D02*
Y728740D01*
X777950D01*
X778616Y728074D01*
Y726741D01*
X777950Y726075D01*
X775950D01*
X777283D02*
X778616Y724742D01*
X779949D02*
X781282D01*
X780616D01*
Y728740D01*
X779949Y728074D01*
X783281D02*
X783948Y728740D01*
X785281D01*
X785947Y728074D01*
Y727408D01*
X785281Y726741D01*
X785947Y726075D01*
Y725408D01*
X785281Y724742D01*
X783948D01*
X783281Y725408D01*
Y726075D01*
X783948Y726741D01*
X783281Y727408D01*
Y728074D01*
X783948Y726741D02*
X785281D01*
X786266Y695932D02*
X785599Y696599D01*
X784266D01*
X783600Y695932D01*
Y695266D01*
X784266Y694599D01*
X785599D01*
X786266Y693933D01*
Y693266D01*
X785599Y692600D01*
X784266D01*
X783600Y693266D01*
X787599Y696599D02*
Y692600D01*
X788932Y693933D01*
X790265Y692600D01*
Y696599D01*
X791597D02*
X794263D01*
Y695932D01*
X791597Y693266D01*
Y692600D01*
X705600Y724600D02*
Y728599D01*
X707599D01*
X708266Y727932D01*
Y726599D01*
X707599Y725933D01*
X705600D01*
X706933D02*
X708266Y724600D01*
X712264D02*
X709599D01*
X712264Y727266D01*
Y727932D01*
X711598Y728599D01*
X710265D01*
X709599Y727932D01*
X716263Y728599D02*
X714930Y727932D01*
X713597Y726599D01*
Y725266D01*
X714264Y724600D01*
X715597D01*
X716263Y725266D01*
Y725933D01*
X715597Y726599D01*
X713597D01*
X844950Y779742D02*
Y783740D01*
X846950D01*
X847616Y783074D01*
Y781741D01*
X846950Y781075D01*
X844950D01*
X846283D02*
X847616Y779742D01*
X848949D02*
X850282D01*
X849616D01*
Y783740D01*
X848949Y783074D01*
X852281D02*
X852948Y783740D01*
X854281D01*
X854947Y783074D01*
Y780408D01*
X854281Y779742D01*
X852948D01*
X852281Y780408D01*
Y783074D01*
X855266Y750932D02*
X854599Y751599D01*
X853267D01*
X852600Y750932D01*
Y750266D01*
X853267Y749599D01*
X854599D01*
X855266Y748933D01*
Y748266D01*
X854599Y747600D01*
X853267D01*
X852600Y748266D01*
X856599Y751599D02*
Y747600D01*
X857932Y748933D01*
X859264Y747600D01*
Y751599D01*
X860597Y750932D02*
X861264Y751599D01*
X862597D01*
X863263Y750932D01*
Y750266D01*
X862597Y749599D01*
X861930D01*
X862597D01*
X863263Y748933D01*
Y748266D01*
X862597Y747600D01*
X861264D01*
X860597Y748266D01*
X775600Y779600D02*
Y783599D01*
X777599D01*
X778266Y782932D01*
Y781599D01*
X777599Y780933D01*
X775600D01*
X776933D02*
X778266Y779600D01*
X779599D02*
X780932D01*
X780265D01*
Y783599D01*
X779599Y782932D01*
X785597Y783599D02*
X784264Y782932D01*
X782931Y781599D01*
Y780266D01*
X783597Y779600D01*
X784930D01*
X785597Y780266D01*
Y780933D01*
X784930Y781599D01*
X782931D01*
X785915Y750791D02*
X785249Y751457D01*
X783916D01*
X783250Y750791D01*
Y750124D01*
X783916Y749458D01*
X785249D01*
X785915Y748791D01*
Y748125D01*
X785249Y747458D01*
X783916D01*
X783250Y748125D01*
X787248Y751457D02*
Y747458D01*
X788581Y748791D01*
X789914Y747458D01*
Y751457D01*
X793913D02*
X792580Y750791D01*
X791247Y749458D01*
Y748125D01*
X791914Y747458D01*
X793246D01*
X793913Y748125D01*
Y748791D01*
X793246Y749458D01*
X791247D01*
X705600Y779600D02*
Y783599D01*
X707599D01*
X708266Y782932D01*
Y781599D01*
X707599Y780933D01*
X705600D01*
X706933D02*
X708266Y779600D01*
X712264D02*
X709599D01*
X712264Y782266D01*
Y782932D01*
X711598Y783599D01*
X710265D01*
X709599Y782932D01*
X715597Y779600D02*
Y783599D01*
X713597Y781599D01*
X716263D01*
X714266Y750432D02*
X713599Y751099D01*
X712266D01*
X711600Y750432D01*
Y749766D01*
X712266Y749099D01*
X713599D01*
X714266Y748433D01*
Y747766D01*
X713599Y747100D01*
X712266D01*
X711600Y747766D01*
X715599Y751099D02*
Y747100D01*
X716932Y748433D01*
X718264Y747100D01*
Y751099D01*
X719597Y747100D02*
X720930D01*
X720264D01*
Y751099D01*
X719597Y750432D01*
X722930D02*
X723596Y751099D01*
X724929D01*
X725596Y750432D01*
Y747766D01*
X724929Y747100D01*
X723596D01*
X722930Y747766D01*
Y750432D01*
X786266Y805932D02*
X785599Y806599D01*
X784266D01*
X783600Y805932D01*
Y805266D01*
X784266Y804599D01*
X785599D01*
X786266Y803933D01*
Y803266D01*
X785599Y802600D01*
X784266D01*
X783600Y803266D01*
X787599Y806599D02*
Y802600D01*
X788932Y803933D01*
X790265Y802600D01*
Y806599D01*
X794263D02*
X791597D01*
Y804599D01*
X792930Y805266D01*
X793597D01*
X794263Y804599D01*
Y803266D01*
X793597Y802600D01*
X792264D01*
X791597Y803266D01*
X775950Y834742D02*
Y838740D01*
X777950D01*
X778616Y838074D01*
Y836741D01*
X777950Y836075D01*
X775950D01*
X777283D02*
X778616Y834742D01*
X779949D02*
X781282D01*
X780616D01*
Y838740D01*
X779949Y838074D01*
X785281Y834742D02*
Y838740D01*
X783281Y836741D01*
X785947D01*
X705100Y834600D02*
Y838599D01*
X707099D01*
X707766Y837932D01*
Y836599D01*
X707099Y835933D01*
X705100D01*
X706433D02*
X707766Y834600D01*
X711764D02*
X709099D01*
X711764Y837266D01*
Y837932D01*
X711098Y838599D01*
X709765D01*
X709099Y837932D01*
X715763Y834600D02*
X713097D01*
X715763Y837266D01*
Y837932D01*
X715097Y838599D01*
X713764D01*
X713097Y837932D01*
X716266Y805649D02*
X715599Y806315D01*
X714266D01*
X713600Y805649D01*
Y804982D01*
X714266Y804316D01*
X715599D01*
X716266Y803649D01*
Y802983D01*
X715599Y802316D01*
X714266D01*
X713600Y802983D01*
X717599Y806315D02*
Y802316D01*
X718932Y803649D01*
X720264Y802316D01*
Y806315D01*
X721597Y802983D02*
X722264Y802316D01*
X723597D01*
X724263Y802983D01*
Y805649D01*
X723597Y806315D01*
X722264D01*
X721597Y805649D01*
Y804982D01*
X722264Y804316D01*
X724263D01*
X853616Y805074D02*
X852950Y805740D01*
X851617D01*
X850950Y805074D01*
Y804408D01*
X851617Y803741D01*
X852950D01*
X853616Y803075D01*
Y802408D01*
X852950Y801742D01*
X851617D01*
X850950Y802408D01*
X854949Y805740D02*
Y801742D01*
X856282Y803075D01*
X857615Y801742D01*
Y805740D01*
X858948Y801742D02*
X860281D01*
X859614D01*
Y805740D01*
X858948Y805074D01*
X862280D02*
X862947Y805740D01*
X864279D01*
X864946Y805074D01*
Y804408D01*
X864279Y803741D01*
X863613D01*
X864279D01*
X864946Y803075D01*
Y802408D01*
X864279Y801742D01*
X862947D01*
X862280Y802408D01*
X845100Y834100D02*
Y838099D01*
X847099D01*
X847766Y837432D01*
Y836099D01*
X847099Y835433D01*
X845100D01*
X846433D02*
X847766Y834100D01*
X849099Y837432D02*
X849765Y838099D01*
X851098D01*
X851764Y837432D01*
Y836766D01*
X851098Y836099D01*
X850432D01*
X851098D01*
X851764Y835433D01*
Y834766D01*
X851098Y834100D01*
X849765D01*
X849099Y834766D01*
X853097Y837432D02*
X853764Y838099D01*
X855097D01*
X855763Y837432D01*
Y834766D01*
X855097Y834100D01*
X853764D01*
X853097Y834766D01*
Y837432D01*
X889568Y836766D02*
X888901Y836099D01*
Y834766D01*
X889568Y834100D01*
X892233D01*
X892900Y834766D01*
Y836099D01*
X892233Y836766D01*
X888901Y840765D02*
Y838099D01*
X890901D01*
X890234Y839432D01*
Y840098D01*
X890901Y840765D01*
X892233D01*
X892900Y840098D01*
Y838765D01*
X892233Y838099D01*
X883568Y836766D02*
X882901Y836099D01*
Y834766D01*
X883568Y834100D01*
X886234D01*
X886900Y834766D01*
Y836099D01*
X886234Y836766D01*
X882901Y840765D02*
X883568Y839432D01*
X884901Y838099D01*
X886234D01*
X886900Y838765D01*
Y840098D01*
X886234Y840765D01*
X885567D01*
X884901Y840098D01*
Y838099D01*
X885568Y869266D02*
X884901Y868599D01*
Y867266D01*
X885568Y866600D01*
X888233D01*
X888900Y867266D01*
Y868599D01*
X888233Y869266D01*
X888900Y872598D02*
X884901D01*
X886901Y870599D01*
Y873265D01*
X903100Y873099D02*
Y869767D01*
X903767Y869100D01*
X905099D01*
X905766Y869767D01*
Y873099D01*
X909764Y869100D02*
X907099D01*
X909764Y871766D01*
Y872432D01*
X909098Y873099D01*
X907765D01*
X907099Y872432D01*
X919266Y899932D02*
X918599Y900599D01*
X917266D01*
X916600Y899932D01*
Y899266D01*
X917266Y898599D01*
X918599D01*
X919266Y897933D01*
Y897266D01*
X918599Y896600D01*
X917266D01*
X916600Y897266D01*
X920599Y900599D02*
Y896600D01*
X921932Y897933D01*
X923265Y896600D01*
Y900599D01*
X924597Y896600D02*
X925930D01*
X925264D01*
Y900599D01*
X924597Y899932D01*
X927930Y897266D02*
X928596Y896600D01*
X929929D01*
X930595Y897266D01*
Y899932D01*
X929929Y900599D01*
X928596D01*
X927930Y899932D01*
Y899266D01*
X928596Y898599D01*
X930595D01*
X797600Y899100D02*
Y903099D01*
X799599D01*
X800266Y902432D01*
Y901099D01*
X799599Y900433D01*
X797600D01*
X798933D02*
X800266Y899100D01*
X801599D02*
X802932D01*
X802265D01*
Y903099D01*
X801599Y902432D01*
X804931Y899100D02*
X806264D01*
X805597D01*
Y903099D01*
X804931Y902432D01*
X804266Y913432D02*
X803599Y914099D01*
X802266D01*
X801600Y913432D01*
Y910767D01*
X802266Y910100D01*
X803599D01*
X804266Y910767D01*
X805599Y914099D02*
X808265D01*
Y913432D01*
X805599Y910767D01*
Y910100D01*
X771600Y909800D02*
Y913799D01*
X773599D01*
X774266Y913132D01*
Y911799D01*
X773599Y911133D01*
X771600D01*
X772933D02*
X774266Y909800D01*
X778265Y913799D02*
X775599D01*
Y911799D01*
X776932Y912466D01*
X777598D01*
X778265Y911799D01*
Y910466D01*
X777598Y909800D01*
X776265D01*
X775599Y910466D01*
X771600Y898100D02*
Y902099D01*
X773599D01*
X774266Y901432D01*
Y900099D01*
X773599Y899433D01*
X771600D01*
X772933D02*
X774266Y898100D01*
X778265Y902099D02*
X776932Y901432D01*
X775599Y900099D01*
Y898767D01*
X776265Y898100D01*
X777598D01*
X778265Y898767D01*
Y899433D01*
X777598Y900099D01*
X775599D01*
X853766Y860531D02*
X853099Y861197D01*
X851766D01*
X851100Y860531D01*
Y859864D01*
X851766Y859198D01*
X853099D01*
X853766Y858531D01*
Y857865D01*
X853099Y857198D01*
X851766D01*
X851100Y857865D01*
X855099Y861197D02*
Y857198D01*
X856432Y858531D01*
X857765Y857198D01*
Y861197D01*
X859097Y857198D02*
X860430D01*
X859764D01*
Y861197D01*
X859097Y860531D01*
X864429Y857198D02*
Y861197D01*
X862430Y859198D01*
X865096D01*
X845100Y889698D02*
Y893697D01*
X847099D01*
X847766Y893031D01*
Y891698D01*
X847099Y891031D01*
X845100D01*
X846433D02*
X847766Y889698D01*
X849099Y893031D02*
X849765Y893697D01*
X851098D01*
X851764Y893031D01*
Y892364D01*
X851098Y891698D01*
X850432D01*
X851098D01*
X851764Y891031D01*
Y890365D01*
X851098Y889698D01*
X849765D01*
X849099Y890365D01*
X855763Y889698D02*
X853097D01*
X855763Y892364D01*
Y893031D01*
X855097Y893697D01*
X853764D01*
X853097Y893031D01*
X786266Y860432D02*
X785599Y861099D01*
X784266D01*
X783600Y860432D01*
Y859766D01*
X784266Y859099D01*
X785599D01*
X786266Y858433D01*
Y857767D01*
X785599Y857100D01*
X784266D01*
X783600Y857767D01*
X787599Y861099D02*
Y857100D01*
X788932Y858433D01*
X790265Y857100D01*
Y861099D01*
X793597Y857100D02*
Y861099D01*
X791597Y859099D01*
X794263D01*
X812266Y894432D02*
X811599Y895099D01*
X810266D01*
X809600Y894432D01*
Y891766D01*
X810266Y891100D01*
X811599D01*
X812266Y891766D01*
X813599Y891100D02*
X814932D01*
X814265D01*
Y895099D01*
X813599Y894432D01*
X816931D02*
X817597Y895099D01*
X818930D01*
X819597Y894432D01*
Y891766D01*
X818930Y891100D01*
X817597D01*
X816931Y891766D01*
Y894432D01*
X776100Y889600D02*
Y893599D01*
X778099D01*
X778766Y892932D01*
Y891599D01*
X778099Y890933D01*
X776100D01*
X777433D02*
X778766Y889600D01*
X780099D02*
X781432D01*
X780765D01*
Y893599D01*
X780099Y892932D01*
X786097Y889600D02*
X783431D01*
X786097Y892266D01*
Y892932D01*
X785430Y893599D01*
X784097D01*
X783431Y892932D01*
X716266Y860932D02*
X715599Y861599D01*
X714266D01*
X713600Y860932D01*
Y860266D01*
X714266Y859599D01*
X715599D01*
X716266Y858933D01*
Y858267D01*
X715599Y857600D01*
X714266D01*
X713600Y858267D01*
X717599Y861599D02*
Y857600D01*
X718932Y858933D01*
X720264Y857600D01*
Y861599D01*
X721597Y860932D02*
X722264Y861599D01*
X723597D01*
X724263Y860932D01*
Y860266D01*
X723597Y859599D01*
X724263Y858933D01*
Y858267D01*
X723597Y857600D01*
X722264D01*
X721597Y858267D01*
Y858933D01*
X722264Y859599D01*
X721597Y860266D01*
Y860932D01*
X722264Y859599D02*
X723597D01*
X705950Y889742D02*
Y893740D01*
X707950D01*
X708616Y893074D01*
Y891741D01*
X707950Y891075D01*
X705950D01*
X707283D02*
X708616Y889742D01*
X712615D02*
X709949D01*
X712615Y892408D01*
Y893074D01*
X711948Y893740D01*
X710615D01*
X709949Y893074D01*
X713948D02*
X714614Y893740D01*
X715947D01*
X716614Y893074D01*
Y890408D01*
X715947Y889742D01*
X714614D01*
X713948Y890408D01*
Y893074D01*
X891100Y980600D02*
Y984599D01*
X893099D01*
X893766Y983932D01*
Y982599D01*
X893099Y981933D01*
X891100D01*
X892433D02*
X893766Y980600D01*
X895099Y983932D02*
X895765Y984599D01*
X897098D01*
X897764Y983932D01*
Y983266D01*
X897098Y982599D01*
X896432D01*
X897098D01*
X897764Y981933D01*
Y981266D01*
X897098Y980600D01*
X895765D01*
X895099Y981266D01*
X901097Y980600D02*
Y984599D01*
X899097Y982599D01*
X901763D01*
X916900Y989600D02*
X912901D01*
Y991599D01*
X913568Y992266D01*
X914901D01*
X915567Y991599D01*
Y989600D01*
Y990933D02*
X916900Y992266D01*
X913568Y993599D02*
X912901Y994265D01*
Y995598D01*
X913568Y996264D01*
X914234D01*
X914901Y995598D01*
Y994932D01*
Y995598D01*
X915567Y996264D01*
X916234D01*
X916900Y995598D01*
Y994265D01*
X916234Y993599D01*
X913568Y997597D02*
X912901Y998264D01*
Y999597D01*
X913568Y1000263D01*
X914234D01*
X914901Y999597D01*
Y998930D01*
Y999597D01*
X915567Y1000263D01*
X916234D01*
X916900Y999597D01*
Y998264D01*
X916234Y997597D01*
X919568Y992766D02*
X918901Y992099D01*
Y990767D01*
X919568Y990100D01*
X922233D01*
X922900Y990767D01*
Y992099D01*
X922233Y992766D01*
X922900Y996764D02*
Y994099D01*
X920234Y996764D01*
X919568D01*
X918901Y996098D01*
Y994765D01*
X919568Y994099D01*
X922900Y998097D02*
Y999430D01*
Y998764D01*
X918901D01*
X919568Y998097D01*
X899766Y951432D02*
X899099Y952099D01*
X897766D01*
X897100Y951432D01*
Y950766D01*
X897766Y950099D01*
X899099D01*
X899766Y949433D01*
Y948767D01*
X899099Y948100D01*
X897766D01*
X897100Y948767D01*
X901099Y952099D02*
Y948100D01*
X902432Y949433D01*
X903765Y948100D01*
Y952099D01*
X905097Y948100D02*
X906430D01*
X905764D01*
Y952099D01*
X905097Y951432D01*
X911096Y952099D02*
X908430D01*
Y950099D01*
X909763Y950766D01*
X910429D01*
X911096Y950099D01*
Y948767D01*
X910429Y948100D01*
X909096D01*
X908430Y948767D01*
X899766Y1006432D02*
X899099Y1007099D01*
X897766D01*
X897100Y1006432D01*
Y1005766D01*
X897766Y1005099D01*
X899099D01*
X899766Y1004433D01*
Y1003767D01*
X899099Y1003100D01*
X897766D01*
X897100Y1003767D01*
X901099Y1007099D02*
Y1003100D01*
X902432Y1004433D01*
X903765Y1003100D01*
Y1007099D01*
X905097Y1003100D02*
X906430D01*
X905764D01*
Y1007099D01*
X905097Y1006432D01*
X908430D02*
X909096Y1007099D01*
X910429D01*
X911096Y1006432D01*
Y1005766D01*
X910429Y1005099D01*
X911096Y1004433D01*
Y1003767D01*
X910429Y1003100D01*
X909096D01*
X908430Y1003767D01*
Y1004433D01*
X909096Y1005099D01*
X908430Y1005766D01*
Y1006432D01*
X909096Y1005099D02*
X910429D01*
X919568Y1047266D02*
X918901Y1046599D01*
Y1045267D01*
X919568Y1044600D01*
X922233D01*
X922900Y1045267D01*
Y1046599D01*
X922233Y1047266D01*
X922900Y1051264D02*
Y1048599D01*
X920234Y1051264D01*
X919568D01*
X918901Y1050598D01*
Y1049265D01*
X919568Y1048599D01*
X922900Y1054597D02*
X918901D01*
X920901Y1052597D01*
Y1055263D01*
X916900Y1044600D02*
X912901D01*
Y1046599D01*
X913568Y1047266D01*
X914901D01*
X915567Y1046599D01*
Y1044600D01*
Y1045933D02*
X916900Y1047266D01*
X913568Y1048599D02*
X912901Y1049265D01*
Y1050598D01*
X913568Y1051264D01*
X914234D01*
X914901Y1050598D01*
Y1049932D01*
Y1050598D01*
X915567Y1051264D01*
X916234D01*
X916900Y1050598D01*
Y1049265D01*
X916234Y1048599D01*
Y1052597D02*
X916900Y1053264D01*
Y1054597D01*
X916234Y1055263D01*
X913568D01*
X912901Y1054597D01*
Y1053264D01*
X913568Y1052597D01*
X914234D01*
X914901Y1053264D01*
Y1055263D01*
X891600Y1035600D02*
Y1039599D01*
X893599D01*
X894266Y1038932D01*
Y1037599D01*
X893599Y1036933D01*
X891600D01*
X892933D02*
X894266Y1035600D01*
X897598D02*
Y1039599D01*
X895599Y1037599D01*
X898265D01*
X899597Y1038932D02*
X900264Y1039599D01*
X901597D01*
X902263Y1038932D01*
Y1036267D01*
X901597Y1035600D01*
X900264D01*
X899597Y1036267D01*
Y1038932D01*
X664600Y895100D02*
Y899099D01*
X666599D01*
X667266Y898432D01*
Y897099D01*
X666599Y896433D01*
X664600D01*
X665933D02*
X667266Y895100D01*
X668599Y898432D02*
X669265Y899099D01*
X670598D01*
X671265Y898432D01*
Y897766D01*
X670598Y897099D01*
X669932D01*
X670598D01*
X671265Y896433D01*
Y895767D01*
X670598Y895100D01*
X669265D01*
X668599Y895767D01*
X675263Y899099D02*
X673930Y898432D01*
X672597Y897099D01*
Y895767D01*
X673264Y895100D01*
X674597D01*
X675263Y895767D01*
Y896433D01*
X674597Y897099D01*
X672597D01*
X644266Y872932D02*
X643599Y873599D01*
X642266D01*
X641600Y872932D01*
Y872266D01*
X642266Y871599D01*
X643599D01*
X644266Y870933D01*
Y870267D01*
X643599Y869600D01*
X642266D01*
X641600Y870267D01*
X645599Y873599D02*
Y869600D01*
X646932Y870933D01*
X648265Y869600D01*
Y873599D01*
X649597Y869600D02*
X650930D01*
X650264D01*
Y873599D01*
X649597Y872932D01*
X655595Y873599D02*
X654263Y872932D01*
X652930Y871599D01*
Y870267D01*
X653596Y869600D01*
X654929D01*
X655595Y870267D01*
Y870933D01*
X654929Y871599D01*
X652930D01*
X644266Y937932D02*
X643599Y938599D01*
X642266D01*
X641600Y937932D01*
Y937266D01*
X642266Y936599D01*
X643599D01*
X644266Y935933D01*
Y935266D01*
X643599Y934600D01*
X642266D01*
X641600Y935266D01*
X645599Y938599D02*
Y934600D01*
X646932Y935933D01*
X648265Y934600D01*
Y938599D01*
X649597Y934600D02*
X650930D01*
X650264D01*
Y938599D01*
X649597Y937932D01*
X652930Y938599D02*
X655595D01*
Y937932D01*
X652930Y935266D01*
Y934600D01*
X664600Y960600D02*
Y964599D01*
X666599D01*
X667266Y963932D01*
Y962599D01*
X666599Y961933D01*
X664600D01*
X665933D02*
X667266Y960600D01*
X668599Y963932D02*
X669265Y964599D01*
X670598D01*
X671265Y963932D01*
Y963266D01*
X670598Y962599D01*
X669932D01*
X670598D01*
X671265Y961933D01*
Y961267D01*
X670598Y960600D01*
X669265D01*
X668599Y961267D01*
X672597Y963932D02*
X673264Y964599D01*
X674597D01*
X675263Y963932D01*
Y963266D01*
X674597Y962599D01*
X675263Y961933D01*
Y961267D01*
X674597Y960600D01*
X673264D01*
X672597Y961267D01*
Y961933D01*
X673264Y962599D01*
X672597Y963266D01*
Y963932D01*
X673264Y962599D02*
X674597D01*
X702600Y914599D02*
Y910600D01*
X704599D01*
X705266Y911267D01*
Y913932D01*
X704599Y914599D01*
X702600D01*
X709265Y913932D02*
X708598Y914599D01*
X707265D01*
X706599Y913932D01*
Y913266D01*
X707265Y912599D01*
X708598D01*
X709265Y911933D01*
Y911267D01*
X708598Y910600D01*
X707265D01*
X706599Y911267D01*
X710597Y910600D02*
X711930D01*
X711264D01*
Y914599D01*
X710597Y913932D01*
D12*
X935087Y902283D02*
Y937716D01*
X920913Y902283D02*
X935087D01*
X920913Y937716D02*
X935087D01*
X852449Y573307D02*
X875677D01*
Y591024D01*
X852449Y573307D02*
Y591024D01*
X875677D01*
X651701Y611189D02*
Y671819D01*
X671583D01*
X732409Y611189D02*
Y671819D01*
X651701Y611189D02*
X671583D01*
D13*
X703540Y917519D02*
Y1067121D01*
X767008D01*
Y1051251D02*
Y1067121D01*
Y1051251D02*
X807008D01*
Y1067121D01*
X870461Y917484D02*
Y1067121D01*
X807008D02*
X870461D01*
X703540Y917519D02*
X870465D01*
D14*
X816500Y636500D02*
Y645497D01*
X820999D01*
X822498Y643998D01*
Y640999D01*
X820999Y639499D01*
X816500D01*
X819499D02*
X822498Y636500D01*
X829996D02*
X826997D01*
X825497Y637999D01*
Y640999D01*
X826997Y642498D01*
X829996D01*
X831495Y640999D01*
Y639499D01*
X825497D01*
X834494Y642498D02*
X837493Y636500D01*
X840492Y642498D01*
X852488Y636500D02*
Y642498D01*
X855487Y645497D01*
X858486Y642498D01*
Y636500D01*
Y640999D01*
X852488D01*
X787498Y663998D02*
X785998Y665497D01*
X783000D01*
X781500Y663998D01*
Y658000D01*
X783000Y656500D01*
X785998D01*
X787498Y658000D01*
X791997Y662498D02*
X794996D01*
X796495Y660998D01*
Y656500D01*
X791997D01*
X790497Y658000D01*
X791997Y659499D01*
X796495D01*
X799494Y656500D02*
X802493D01*
X800994D01*
Y665497D01*
X799494D01*
X808491Y656500D02*
X811490D01*
X812990Y658000D01*
Y660998D01*
X811490Y662498D01*
X808491D01*
X806992Y660998D01*
Y658000D01*
X808491Y656500D01*
X815989Y662498D02*
Y656500D01*
Y659499D01*
X817488Y660998D01*
X818988Y662498D01*
X820487D01*
X824986Y656500D02*
X827985D01*
X826486D01*
Y662498D01*
X824986D01*
X836982Y656500D02*
X833983D01*
X832483Y658000D01*
Y660998D01*
X833983Y662498D01*
X836982D01*
X838482Y660998D01*
Y659499D01*
X832483D01*
X850478Y665497D02*
X856476D01*
X853477D01*
Y656500D01*
X859475Y662498D02*
Y656500D01*
Y659499D01*
X860974Y660998D01*
X862474Y662498D01*
X863973D01*
X869971D02*
X872970D01*
X874470Y660998D01*
Y656500D01*
X869971D01*
X868472Y658000D01*
X869971Y659499D01*
X874470D01*
X883467Y662498D02*
X878969D01*
X877469Y660998D01*
Y658000D01*
X878969Y656500D01*
X883467D01*
X886466D02*
Y665497D01*
Y659499D02*
X890965Y662498D01*
X886466Y659499D02*
X890965Y656500D01*
X899962D02*
X896963D01*
X895463Y658000D01*
Y660998D01*
X896963Y662498D01*
X899962D01*
X901461Y660998D01*
Y659499D01*
X895463D01*
X904460Y662498D02*
Y656500D01*
Y659499D01*
X905960Y660998D01*
X907459Y662498D01*
X908959D01*
D15*
X877500Y547000D02*
D03*
M02*
