G04*
G04 #@! TF.GenerationSoftware,Altium Limited,Altium Designer,26.5.0 (11)*
G04*
G04 Layer_Color=16711935*
G04 Board_Origin=0|0*
%FSLAX25Y25*%
%MOIN*%
G70*
G04*
G04 #@! TF.SameCoordinates,D4FFE766-1EB8-4C6C-B99A-8E18D8F99528*
G04*
G04*
G04 #@! TF.FilePolarity,Negative*
G04*
G01*
G75*
%ADD16R,0.06102X0.05118*%
%ADD37R,0.02526X0.02762*%
G04:AMPARAMS|DCode=44|XSize=27.62mil|YSize=30.38mil|CornerRadius=4.95mil|HoleSize=0mil|Usage=FLASHONLY|Rotation=180.000|XOffset=0mil|YOffset=0mil|HoleType=Round|Shape=RoundedRectangle|*
%AMROUNDEDRECTD44*
21,1,0.02762,0.02047,0,0,180.0*
21,1,0.01772,0.03038,0,0,180.0*
1,1,0.00991,-0.00886,0.01024*
1,1,0.00991,0.00886,0.01024*
1,1,0.00991,0.00886,-0.01024*
1,1,0.00991,-0.00886,-0.01024*
%
%ADD44ROUNDEDRECTD44*%
%ADD53C,0.04337*%
%ADD54C,0.05550*%
%ADD55R,0.05550X0.05550*%
G04:AMPARAMS|DCode=56|XSize=39.37mil|YSize=86.61mil|CornerRadius=19.68mil|HoleSize=0mil|Usage=FLASHONLY|Rotation=0.000|XOffset=0mil|YOffset=0mil|HoleType=Round|Shape=RoundedRectangle|*
%AMROUNDEDRECTD56*
21,1,0.03937,0.04724,0,0,0.0*
21,1,0.00000,0.08661,0,0,0.0*
1,1,0.03937,0.00000,-0.02362*
1,1,0.03937,0.00000,-0.02362*
1,1,0.03937,0.00000,0.02362*
1,1,0.03937,0.00000,0.02362*
%
%ADD56ROUNDEDRECTD56*%
G04:AMPARAMS|DCode=57|XSize=39.37mil|YSize=70.87mil|CornerRadius=19.68mil|HoleSize=0mil|Usage=FLASHONLY|Rotation=0.000|XOffset=0mil|YOffset=0mil|HoleType=Round|Shape=RoundedRectangle|*
%AMROUNDEDRECTD57*
21,1,0.03937,0.03150,0,0,0.0*
21,1,0.00000,0.07087,0,0,0.0*
1,1,0.03937,0.00000,-0.01575*
1,1,0.03937,0.00000,-0.01575*
1,1,0.03937,0.00000,0.01575*
1,1,0.03937,0.00000,0.01575*
%
%ADD57ROUNDEDRECTD57*%
%ADD58C,0.07093*%
%ADD59R,0.07093X0.07093*%
D16*
X719551Y552142D02*
D03*
X750850D02*
D03*
X719551Y569858D02*
D03*
X750850D02*
D03*
X669051Y552142D02*
D03*
X700350D02*
D03*
X669051Y569858D02*
D03*
X700350D02*
D03*
D37*
X739902Y583600D02*
D03*
X736500D02*
D03*
X689001Y578000D02*
D03*
X685599D02*
D03*
D44*
X739980Y577100D02*
D03*
X743421D02*
D03*
D53*
X928000Y906614D02*
D03*
Y933386D02*
D03*
D54*
X860126Y580000D02*
D03*
D55*
X868000D02*
D03*
D56*
X770992Y523472D02*
D03*
X805008D02*
D03*
D57*
X770992Y539221D02*
D03*
X805008D02*
D03*
D58*
X792001Y925000D02*
D03*
X782001D02*
D03*
X772001D02*
D03*
D59*
X802001D02*
D03*
M02*
