G04*
G04 #@! TF.GenerationSoftware,Altium Limited,Altium Designer,26.5.0 (11)*
G04*
G04 Layer_Physical_Order=4*
G04 Layer_Color=16711680*
G04 Board_Origin=0|0*
%FSLAX25Y25*%
%MOIN*%
G70*
G04*
G04 #@! TF.SameCoordinates,D4FFE766-1EB8-4C6C-B99A-8E18D8F99528*
G04*
G04*
G04 #@! TF.FilePolarity,Positive*
G04*
G01*
G75*
%ADD11C,0.00600*%
%ADD16R,0.06102X0.05118*%
%ADD17R,0.02126X0.02362*%
G04:AMPARAMS|DCode=25|XSize=23.62mil|YSize=26.38mil|CornerRadius=2.95mil|HoleSize=0mil|Usage=FLASHONLY|Rotation=180.000|XOffset=0mil|YOffset=0mil|HoleType=Round|Shape=RoundedRectangle|*
%AMROUNDEDRECTD25*
21,1,0.02362,0.02047,0,0,180.0*
21,1,0.01772,0.02638,0,0,180.0*
1,1,0.00591,-0.00886,0.01024*
1,1,0.00591,0.00886,0.01024*
1,1,0.00591,0.00886,-0.01024*
1,1,0.00591,-0.00886,-0.01024*
%
%ADD25ROUNDEDRECTD25*%
G04:AMPARAMS|DCode=56|XSize=39.37mil|YSize=86.61mil|CornerRadius=19.68mil|HoleSize=0mil|Usage=FLASHONLY|Rotation=0.000|XOffset=0mil|YOffset=0mil|HoleType=Round|Shape=RoundedRectangle|*
%AMROUNDEDRECTD56*
21,1,0.03937,0.04724,0,0,0.0*
21,1,0.00000,0.08661,0,0,0.0*
1,1,0.03937,0.00000,-0.02362*
1,1,0.03937,0.00000,-0.02362*
1,1,0.03937,0.00000,0.02362*
1,1,0.03937,0.00000,0.02362*
%
%ADD56ROUNDEDRECTD56*%
G04:AMPARAMS|DCode=57|XSize=39.37mil|YSize=70.87mil|CornerRadius=19.68mil|HoleSize=0mil|Usage=FLASHONLY|Rotation=0.000|XOffset=0mil|YOffset=0mil|HoleType=Round|Shape=RoundedRectangle|*
%AMROUNDEDRECTD57*
21,1,0.03937,0.03150,0,0,0.0*
21,1,0.00000,0.07087,0,0,0.0*
1,1,0.03937,0.00000,-0.01575*
1,1,0.03937,0.00000,-0.01575*
1,1,0.03937,0.00000,0.01575*
1,1,0.03937,0.00000,0.01575*
%
%ADD57ROUNDEDRECTD57*%
%ADD61C,0.02000*%
%ADD64C,0.03937*%
%ADD65C,0.05150*%
%ADD66R,0.05150X0.05150*%
%ADD67C,0.06693*%
%ADD68R,0.06693X0.06693*%
%ADD69C,0.02400*%
D11*
X718898Y622800D02*
X732800D01*
X689001Y584701D02*
X692600Y588300D01*
X658400Y591000D02*
X694482D01*
X832900Y674300D02*
Y826600D01*
X836000Y672700D02*
Y825882D01*
X684800Y582321D02*
Y582700D01*
X734100Y619700D02*
X756800Y642400D01*
X836000Y825882D02*
X888100Y877982D01*
X682564Y630136D02*
X695200Y617500D01*
X689001Y569858D02*
Y584701D01*
X685599Y578000D02*
Y581522D01*
X715300Y619700D02*
X734100D01*
X682564Y630136D02*
Y682136D01*
X680500Y687028D02*
X691310Y676218D01*
X714700Y584900D02*
X718900Y589100D01*
X736400D02*
X739805Y585695D01*
X756800Y881400D02*
X779400Y904000D01*
X650000Y676100D02*
X678400D01*
X752100Y593500D02*
X832900Y674300D01*
X702900Y591400D02*
X754700D01*
X888100Y877982D02*
Y882300D01*
X645700Y671800D02*
X650000Y676100D01*
X700400Y588900D02*
X702900Y591400D01*
X676800Y687900D02*
X682564Y682136D01*
X739805Y583697D02*
Y585695D01*
X686400Y654736D02*
X691310Y659647D01*
X680500Y687028D02*
Y691157D01*
X719551Y569858D02*
X739980D01*
X645700Y603700D02*
X658400Y591000D01*
X753600Y643600D02*
Y882700D01*
X756800Y642400D02*
Y881400D01*
X753600Y882700D02*
X779200Y908300D01*
X689001Y569858D02*
X700350D01*
X739980D02*
X750850D01*
X739980D02*
Y577100D01*
X694482Y591000D02*
X700582Y584900D01*
X739805Y583697D02*
X739902Y583600D01*
X686400Y631982D02*
X698441Y619941D01*
X700582Y584900D02*
X714700D01*
X691310Y659647D02*
Y676218D01*
X754700Y591400D02*
X836000Y672700D01*
X718900Y589100D02*
X736400D01*
X697300Y593500D02*
X752100D01*
X669051Y569858D02*
X689001D01*
X739921Y577520D02*
X739941Y577500D01*
X732800Y622800D02*
X753600Y643600D01*
X832900Y826600D02*
X885041Y878741D01*
X645700Y603700D02*
Y671800D01*
X739911Y577530D02*
Y583590D01*
X686400Y631982D02*
Y654736D01*
X684800Y582321D02*
X685599Y581522D01*
X739911Y577530D02*
X739921Y577520D01*
D16*
X719551Y552142D02*
D03*
X750850D02*
D03*
X719551Y569858D02*
D03*
X750850D02*
D03*
X669051Y552142D02*
D03*
X700350D02*
D03*
X669051Y569858D02*
D03*
X700350D02*
D03*
D17*
X739902Y583600D02*
D03*
X736500D02*
D03*
X689001Y578000D02*
D03*
X685599D02*
D03*
D25*
X739980Y577100D02*
D03*
X743421D02*
D03*
D56*
X770992Y523472D02*
D03*
X805008D02*
D03*
D57*
X770992Y539221D02*
D03*
X805008D02*
D03*
D61*
X730200Y583600D02*
X736500D01*
X743421Y577100D02*
X749304D01*
X750850Y546258D02*
Y552142D01*
X719551Y546258D02*
Y552142D01*
X700301Y546300D02*
Y552183D01*
X669002Y546300D02*
Y552183D01*
D64*
X928000Y906614D02*
D03*
Y933386D02*
D03*
D65*
X860126Y580000D02*
D03*
D66*
X868000D02*
D03*
D67*
X792001Y925000D02*
D03*
X782001D02*
D03*
X772001D02*
D03*
D68*
X802001D02*
D03*
D69*
X875000Y898000D02*
D03*
X685289Y610213D02*
D03*
X674437Y609953D02*
D03*
X678429Y618079D02*
D03*
X678571Y609953D02*
D03*
X681917Y617937D02*
D03*
X869825Y733775D02*
D03*
X842201Y750900D02*
D03*
X735475Y733633D02*
D03*
X804150Y750758D02*
D03*
X873500Y750900D02*
D03*
X799475Y733633D02*
D03*
X875825Y733775D02*
D03*
X734150Y750758D02*
D03*
X772850D02*
D03*
X729475Y733633D02*
D03*
X805475D02*
D03*
X702850Y750758D02*
D03*
X695500Y631016D02*
D03*
X691508Y641504D02*
D03*
X698800Y638300D02*
D03*
X695500Y651992D02*
D03*
X698700Y644800D02*
D03*
X701996Y631016D02*
D03*
X698441Y619941D02*
D03*
X701996Y651992D02*
D03*
X695200Y617500D02*
D03*
X743000Y639000D02*
D03*
X712484Y641504D02*
D03*
X708492Y651992D02*
D03*
Y631016D02*
D03*
X705200Y638200D02*
D03*
X734000Y639000D02*
D03*
X705200Y644700D02*
D03*
X715300Y619700D02*
D03*
X734000Y647000D02*
D03*
X729555Y609953D02*
D03*
X718898Y622800D02*
D03*
X733547Y669063D02*
D03*
X743000Y647000D02*
D03*
X678400Y676100D02*
D03*
X676800Y687900D02*
D03*
X674437Y673055D02*
D03*
X678465Y664965D02*
D03*
X685264Y665071D02*
D03*
X688610D02*
D03*
X680500Y691157D02*
D03*
X874600Y697000D02*
D03*
X773201Y695900D02*
D03*
X804500D02*
D03*
X843201D02*
D03*
X702850Y695758D02*
D03*
X734045Y695863D02*
D03*
X678429Y621425D02*
D03*
Y648197D02*
D03*
Y661583D02*
D03*
Y658236D02*
D03*
Y641504D02*
D03*
Y638158D02*
D03*
Y651543D02*
D03*
Y628118D02*
D03*
Y624772D02*
D03*
Y644850D02*
D03*
Y631465D02*
D03*
Y654890D02*
D03*
Y634811D02*
D03*
X868975Y898732D02*
D03*
X868825Y843275D02*
D03*
X905100Y863055D02*
D03*
X898722Y841213D02*
D03*
X873700Y859500D02*
D03*
X890975Y852172D02*
D03*
X885025Y841269D02*
D03*
X884975Y852172D02*
D03*
X905100Y854000D02*
D03*
X842350Y860856D02*
D03*
X883269Y858975D02*
D03*
X874825Y843275D02*
D03*
X886975Y866172D02*
D03*
X891025Y841269D02*
D03*
X914975Y989633D02*
D03*
Y1044633D02*
D03*
X907800Y910200D02*
D03*
X888350Y951758D02*
D03*
X888701Y1006900D02*
D03*
X888100Y882300D02*
D03*
X907800Y920043D02*
D03*
X885100Y878800D02*
D03*
X793500Y575000D02*
D03*
X784500D02*
D03*
Y570000D02*
D03*
X793500Y570500D02*
D03*
X730200Y583600D02*
D03*
X684800Y582700D02*
D03*
X749304Y577100D02*
D03*
X750850Y546258D02*
D03*
X719551D02*
D03*
X700301Y546300D02*
D03*
X669002D02*
D03*
X844000Y544000D02*
D03*
Y548000D02*
D03*
X848000Y544000D02*
D03*
Y548000D02*
D03*
X842000Y580000D02*
D03*
X846000Y578000D02*
D03*
Y582000D02*
D03*
X850000Y576000D02*
D03*
X859500Y543500D02*
D03*
X840000Y565000D02*
D03*
X850000D02*
D03*
X845000Y570000D02*
D03*
X838500Y558000D02*
D03*
X820500D02*
D03*
X845000Y565000D02*
D03*
X829500Y558000D02*
D03*
X811500D02*
D03*
X856186Y536048D02*
D03*
X852000Y536000D02*
D03*
X856000Y540000D02*
D03*
X844000D02*
D03*
X840000Y544000D02*
D03*
X848000Y540000D02*
D03*
Y536000D02*
D03*
X852000Y540000D02*
D03*
X887868Y547000D02*
D03*
X788000Y527000D02*
D03*
X782000Y530000D02*
D03*
Y524000D02*
D03*
X776000Y522000D02*
D03*
Y526000D02*
D03*
Y530000D02*
D03*
Y534000D02*
D03*
X836000Y548000D02*
D03*
X840000D02*
D03*
X919650Y951758D02*
D03*
X860126Y586574D02*
D03*
X808098Y561721D02*
D03*
X920676Y1044632D02*
D03*
X920000Y1006900D02*
D03*
X920975Y989633D02*
D03*
X923400Y845000D02*
D03*
X854000Y574000D02*
D03*
Y586000D02*
D03*
Y582000D02*
D03*
Y578000D02*
D03*
X868400Y554300D02*
D03*
X868000Y586500D02*
D03*
X880000Y569500D02*
D03*
X850000Y584000D02*
D03*
Y580000D02*
D03*
X668525Y947268D02*
D03*
X644300Y948300D02*
D03*
Y964300D02*
D03*
X712000Y597000D02*
D03*
X681269Y605475D02*
D03*
X691441Y598441D02*
D03*
X697300Y593500D02*
D03*
X700400Y588900D02*
D03*
X712000Y588500D02*
D03*
X681269Y598475D02*
D03*
X692600Y588300D02*
D03*
X712633Y605525D02*
D03*
X691441Y605500D02*
D03*
X793500Y560000D02*
D03*
X784500D02*
D03*
X793500Y565000D02*
D03*
X800549Y545951D02*
D03*
X795844Y555097D02*
D03*
X775352Y545951D02*
D03*
X782000Y555000D02*
D03*
X784549Y565000D02*
D03*
X805000Y545622D02*
D03*
X794000Y530000D02*
D03*
Y524000D02*
D03*
X800000Y522000D02*
D03*
Y526000D02*
D03*
Y530000D02*
D03*
Y534000D02*
D03*
X660500Y881508D02*
D03*
X668525Y881769D02*
D03*
X644213Y883300D02*
D03*
Y899300D02*
D03*
X660500Y947008D02*
D03*
X805825Y898775D02*
D03*
X735800Y898800D02*
D03*
X799825Y898775D02*
D03*
X729825D02*
D03*
X807974Y923974D02*
D03*
X795974Y931974D02*
D03*
X802000Y918000D02*
D03*
X801432Y912025D02*
D03*
X868825Y788775D02*
D03*
X735475Y788633D02*
D03*
X734500Y805616D02*
D03*
X874825Y788775D02*
D03*
X842201Y805400D02*
D03*
X873500D02*
D03*
X805475Y788633D02*
D03*
X773201Y805900D02*
D03*
X703201Y805616D02*
D03*
X799475Y788633D02*
D03*
X804500Y805900D02*
D03*
X729475Y788633D02*
D03*
X799825Y843775D02*
D03*
X703201Y860900D02*
D03*
X804500D02*
D03*
X734500D02*
D03*
X735475Y843350D02*
D03*
X773201Y860900D02*
D03*
X729475Y843350D02*
D03*
X805825Y843775D02*
D03*
X799974Y939974D02*
D03*
X803974D02*
D03*
X815974Y927974D02*
D03*
X801974Y935974D02*
D03*
X797974D02*
D03*
X807974Y931974D02*
D03*
X799974D02*
D03*
X804000Y932000D02*
D03*
X811974Y929974D02*
D03*
X801974Y943974D02*
D03*
X807974Y927974D02*
D03*
X811974Y925974D02*
D03*
X805974Y935974D02*
D03*
X779400Y904000D02*
D03*
X779200Y908300D02*
D03*
M02*
