G04*
G04 #@! TF.GenerationSoftware,Altium Limited,Altium Designer,26.5.0 (11)*
G04*
G04 Layer_Color=32896*
G04 Board_Origin=0|0*
%FSLAX25Y25*%
%MOIN*%
G70*
G04*
G04 #@! TF.SameCoordinates,D4FFE766-1EB8-4C6C-B99A-8E18D8F99528*
G04*
G04*
G04 #@! TF.FilePolarity,Positive*
G04*
G01*
G75*
%ADD10C,0.00787*%
%ADD11C,0.00600*%
%ADD14C,0.01500*%
D10*
X757094Y570000D02*
G03*
X757094Y570000I-394J0D01*
G01*
X706595D02*
G03*
X706595Y570000I-394J0D01*
G01*
X747012Y556177D02*
Y565823D01*
X724079Y549189D02*
X746323D01*
X723390Y556177D02*
Y565823D01*
X724079Y572811D02*
X746323D01*
X696512Y556177D02*
Y565823D01*
X673579Y549189D02*
X695823D01*
X672890Y556177D02*
Y565823D01*
X673579Y572811D02*
X695823D01*
D11*
X745900Y574800D02*
Y579400D01*
X737500Y574800D02*
X745900D01*
X737500D02*
Y579400D01*
X745900D01*
X734501Y581500D02*
X741901D01*
X734501D02*
Y585700D01*
X741901D01*
Y581500D02*
Y585700D01*
X683600Y575900D02*
X691000D01*
X683600D02*
Y580100D01*
X691000D01*
Y575900D02*
Y580100D01*
X736999Y543833D02*
X737666Y544499D01*
X738999D01*
X739665Y543833D01*
Y543166D01*
X738999Y542500D01*
X737666D01*
X736999Y541834D01*
Y541167D01*
X737666Y540501D01*
X738999D01*
X739665Y541167D01*
X735666Y544499D02*
Y540501D01*
X734334Y541834D01*
X733001Y540501D01*
Y544499D01*
X731668Y540501D02*
X730335D01*
X731001D01*
Y544499D01*
X731668Y543833D01*
X686166D02*
X686832Y544499D01*
X688165D01*
X688832Y543833D01*
Y543166D01*
X688165Y542500D01*
X686832D01*
X686166Y541834D01*
Y541167D01*
X686832Y540501D01*
X688165D01*
X688832Y541167D01*
X684833Y544499D02*
Y540501D01*
X683500Y541834D01*
X682167Y540501D01*
Y544499D01*
X678168Y540501D02*
X680834D01*
X678168Y543166D01*
Y543833D01*
X678835Y544499D01*
X680168D01*
X680834Y543833D01*
X681400Y576100D02*
Y580099D01*
X679401D01*
X678734Y579432D01*
Y578099D01*
X679401Y577433D01*
X681400D01*
X680067D02*
X678734Y576100D01*
X677401Y579432D02*
X676735Y580099D01*
X675402D01*
X674735Y579432D01*
Y578766D01*
X675402Y578099D01*
X674735Y577433D01*
Y576766D01*
X675402Y576100D01*
X676735D01*
X677401Y576766D01*
Y577433D01*
X676735Y578099D01*
X677401Y578766D01*
Y579432D01*
X676735Y578099D02*
X675402D01*
X732400Y581600D02*
Y585599D01*
X730401D01*
X729734Y584932D01*
Y583599D01*
X730401Y582933D01*
X732400D01*
X731067D02*
X729734Y581600D01*
X728401Y585599D02*
X725736D01*
Y584932D01*
X728401Y582266D01*
Y581600D01*
X732234Y576068D02*
X732901Y575401D01*
X734234D01*
X734900Y576068D01*
Y578734D01*
X734234Y579400D01*
X732901D01*
X732234Y578734D01*
X730901Y576068D02*
X730235Y575401D01*
X728902D01*
X728235Y576068D01*
Y576734D01*
X728902Y577401D01*
X728235Y578067D01*
Y578734D01*
X728902Y579400D01*
X730235D01*
X730901Y578734D01*
Y578067D01*
X730235Y577401D01*
X730901Y576734D01*
Y576068D01*
X730235Y577401D02*
X728902D01*
D14*
X793168Y979000D02*
X798500D01*
X793168Y984332D01*
Y985664D01*
X794501Y986997D01*
X797167D01*
X798500Y985664D01*
X790503D02*
X789170Y986997D01*
X786504D01*
X785171Y985664D01*
Y980333D01*
X786504Y979000D01*
X789170D01*
X790503Y980333D01*
Y985664D01*
X777174Y979000D02*
X782505D01*
X777174Y984332D01*
Y985664D01*
X778507Y986997D01*
X781172D01*
X782505Y985664D01*
X769176Y986997D02*
X771842Y985664D01*
X774508Y982999D01*
Y980333D01*
X773175Y979000D01*
X770509D01*
X769176Y980333D01*
Y981666D01*
X770509Y982999D01*
X774508D01*
X826000Y1006997D02*
Y999000D01*
Y1001666D01*
X820668Y1006997D01*
X824667Y1002999D01*
X820668Y999000D01*
X814004D02*
X816670D01*
X818003Y1000333D01*
Y1002999D01*
X816670Y1004332D01*
X814004D01*
X812671Y1002999D01*
Y1001666D01*
X818003D01*
X810005Y1004332D02*
X807339Y999000D01*
X804674Y1004332D01*
X802008Y999000D02*
X799342D01*
X800675D01*
Y1004332D01*
X802008D01*
X795343Y999000D02*
Y1004332D01*
X791344D01*
X790012Y1002999D01*
Y999000D01*
X779348D02*
Y1006997D01*
X775350D01*
X774017Y1005665D01*
Y1002999D01*
X775350Y1001666D01*
X779348D01*
X770018Y1004332D02*
X767352D01*
X766019Y1002999D01*
Y999000D01*
X770018D01*
X771351Y1000333D01*
X770018Y1001666D01*
X766019D01*
X762021Y1005665D02*
Y1004332D01*
X763354D01*
X760688D01*
X762021D01*
Y1000333D01*
X760688Y999000D01*
X752690D02*
X755356D01*
X756689Y1000333D01*
Y1002999D01*
X755356Y1004332D01*
X752690D01*
X751358Y1002999D01*
Y1001666D01*
X756689D01*
X748692Y999000D02*
X746026D01*
X747359D01*
Y1006997D01*
X748692D01*
X855668Y1025665D02*
X857001Y1026997D01*
X859667D01*
X861000Y1025665D01*
Y1020333D01*
X859667Y1019000D01*
X857001D01*
X855668Y1020333D01*
X851670Y1024332D02*
X849004D01*
X847671Y1022999D01*
Y1019000D01*
X851670D01*
X853003Y1020333D01*
X851670Y1021666D01*
X847671D01*
X845005Y1019000D02*
X842339D01*
X843672D01*
Y1026997D01*
X845005D01*
X837008Y1019000D02*
X834342D01*
X833009Y1020333D01*
Y1022999D01*
X834342Y1024332D01*
X837008D01*
X838341Y1022999D01*
Y1020333D01*
X837008Y1019000D01*
X830343Y1024332D02*
Y1019000D01*
Y1021666D01*
X829010Y1022999D01*
X827678Y1024332D01*
X826344D01*
X822346Y1019000D02*
X819680D01*
X821013D01*
Y1024332D01*
X822346D01*
X811683Y1019000D02*
X814348D01*
X815681Y1020333D01*
Y1022999D01*
X814348Y1024332D01*
X811683D01*
X810350Y1022999D01*
Y1021666D01*
X815681D01*
X799686Y1026997D02*
X794355D01*
X797021D01*
Y1019000D01*
X791689Y1024332D02*
Y1019000D01*
Y1021666D01*
X790356Y1022999D01*
X789023Y1024332D01*
X787690D01*
X782359D02*
X779693D01*
X778360Y1022999D01*
Y1019000D01*
X782359D01*
X783692Y1020333D01*
X782359Y1021666D01*
X778360D01*
X770363Y1024332D02*
X774361D01*
X775694Y1022999D01*
Y1020333D01*
X774361Y1019000D01*
X770363D01*
X767697D02*
Y1026997D01*
Y1021666D02*
X763698Y1024332D01*
X767697Y1021666D02*
X763698Y1019000D01*
X755701D02*
X758367D01*
X759699Y1020333D01*
Y1022999D01*
X758367Y1024332D01*
X755701D01*
X754368Y1022999D01*
Y1021666D01*
X759699D01*
X751702Y1024332D02*
Y1019000D01*
Y1021666D01*
X750369Y1022999D01*
X749036Y1024332D01*
X747703D01*
X735707Y1019000D02*
Y1026997D01*
X731708D01*
X730376Y1025665D01*
Y1022999D01*
X731708Y1021666D01*
X735707D01*
X722378Y1025665D02*
X723711Y1026997D01*
X726377D01*
X727710Y1025665D01*
Y1020333D01*
X726377Y1019000D01*
X723711D01*
X722378Y1020333D01*
X719712Y1026997D02*
Y1019000D01*
X715714D01*
X714381Y1020333D01*
Y1021666D01*
X715714Y1022999D01*
X719712D01*
X715714D01*
X714381Y1024332D01*
Y1025665D01*
X715714Y1026997D01*
X719712D01*
M02*
