G04*
G04 #@! TF.GenerationSoftware,Altium Limited,Altium Designer,26.5.0 (11)*
G04*
G04 Layer_Physical_Order=3*
G04 Layer_Color=32768*
G04 Board_Origin=0|0*
%FSLAX25Y25*%
%MOIN*%
G70*
G04*
G04 #@! TF.SameCoordinates,D4FFE766-1EB8-4C6C-B99A-8E18D8F99528*
G04*
G04*
G04 #@! TF.FilePolarity,Negative*
G04*
G01*
G75*
%ADD71C,0.04000*%
%ADD72C,0.07937*%
G04:AMPARAMS|DCode=73|XSize=91.496mil|YSize=91.496mil|CornerRadius=0mil|HoleSize=0mil|Usage=FLASHONLY|Rotation=0.000|XOffset=0mil|YOffset=0mil|HoleType=Round|Shape=Relief|Width=20mil|Gap=10mil|Entries=4|*
%AMTHD73*
7,0,0,0.09150,0.07150,0.02000,45*
%
%ADD73THD73*%
%ADD74C,0.07150*%
%AMTHOVALD75*
21,1,0.04724,0.08362,0,0,90.0*
1,1,0.08362,0.00000,-0.02362*
1,1,0.08362,0.00000,0.02362*
21,0,0.04724,0.06362,0,0,90.0*
1,0,0.06362,0.00000,-0.02362*
1,0,0.06362,0.00000,0.02362*
4,0,4,0.00707,-0.01655,0.03664,-0.04612,0.02249,-0.06026,-0.00707,-0.03069,0.00707,-0.01655,0.0*
4,0,4,0.00707,0.03069,-0.02249,0.06026,-0.03664,0.04612,-0.00707,0.01655,0.00707,0.03069,0.0*
4,0,4,0.00707,-0.03069,-0.02249,-0.06026,-0.03664,-0.04612,-0.00707,-0.01655,0.00707,-0.03069,0.0*
4,0,4,0.00707,0.01655,0.03664,0.04612,0.02249,0.06026,-0.00707,0.03069,0.00707,0.01655,0.0*
%
%ADD75THOVALD75*%

%AMTHOVALD76*
21,1,0.03150,0.08362,0,0,90.0*
1,1,0.08362,0.00000,-0.01575*
1,1,0.08362,0.00000,0.01575*
21,0,0.03150,0.06362,0,0,90.0*
1,0,0.06362,0.00000,-0.01575*
1,0,0.06362,0.00000,0.01575*
4,0,4,0.00707,-0.00868,0.03664,-0.03824,0.02249,-0.05238,-0.00707,-0.02282,0.00707,-0.00868,0.0*
4,0,4,0.00707,0.02282,-0.02249,0.05238,-0.03664,0.03824,-0.00707,0.00868,0.00707,0.02282,0.0*
4,0,4,0.00707,-0.02282,-0.02249,-0.05238,-0.03664,-0.03824,-0.00707,-0.00868,0.00707,-0.02282,0.0*
4,0,4,0.00707,0.00868,0.03664,0.03824,0.02249,0.05238,-0.00707,0.02282,0.00707,0.00868,0.0*
%
%ADD76THOVALD76*%

%ADD77C,0.07937*%
G04:AMPARAMS|DCode=78|XSize=99.37mil|YSize=99.37mil|CornerRadius=0mil|HoleSize=0mil|Usage=FLASHONLY|Rotation=0.000|XOffset=0mil|YOffset=0mil|HoleType=Round|Shape=Relief|Width=20mil|Gap=10mil|Entries=4|*
%AMTHD78*
7,0,0,0.09937,0.07937,0.02000,45*
%
%ADD78THD78*%
%ADD79C,0.05200*%
G36*
X862345Y1062961D02*
X863420Y1062516D01*
X864387Y1061870D01*
X865210Y1061047D01*
X865856Y1060080D01*
X866301Y1059006D01*
X866528Y1057865D01*
Y1057283D01*
Y1056701D01*
X866301Y1055560D01*
X865856Y1054486D01*
X865210Y1053518D01*
X864387Y1052696D01*
X863420Y1052050D01*
X862345Y1051604D01*
X861204Y1051377D01*
X860041D01*
X858900Y1051604D01*
X857825Y1052050D01*
X856858Y1052696D01*
X856036Y1053518D01*
X855389Y1054486D01*
X854944Y1055560D01*
X854717Y1056701D01*
Y1057283D01*
Y1057865D01*
X854944Y1059006D01*
X855389Y1060080D01*
X856036Y1061047D01*
X856858Y1061870D01*
X857825Y1062516D01*
X858900Y1062961D01*
X860041Y1063188D01*
X861204D01*
X862345Y1062961D01*
D02*
G37*
G36*
X715101D02*
X716176Y1062516D01*
X717143Y1061870D01*
X717966Y1061047D01*
X718612Y1060080D01*
X719057Y1059006D01*
X719284Y1057865D01*
Y1057283D01*
Y1056701D01*
X719057Y1055560D01*
X718612Y1054486D01*
X717966Y1053518D01*
X717143Y1052696D01*
X716176Y1052050D01*
X715101Y1051604D01*
X713960Y1051377D01*
X712797D01*
X711656Y1051604D01*
X710581Y1052050D01*
X709614Y1052696D01*
X708791Y1053518D01*
X708145Y1054486D01*
X707700Y1055560D01*
X707473Y1056701D01*
Y1057283D01*
Y1057865D01*
X707700Y1059006D01*
X708145Y1060080D01*
X708791Y1061047D01*
X709614Y1061870D01*
X710581Y1062516D01*
X711656Y1062961D01*
X712797Y1063188D01*
X713960D01*
X715101Y1062961D01*
D02*
G37*
G36*
X862345Y933041D02*
X863420Y932595D01*
X864387Y931949D01*
X865210Y931126D01*
X865856Y930159D01*
X866301Y929085D01*
X866528Y927944D01*
Y927362D01*
Y926780D01*
X866301Y925639D01*
X865856Y924565D01*
X865210Y923598D01*
X864387Y922775D01*
X863420Y922129D01*
X862345Y921683D01*
X861204Y921457D01*
X860041D01*
X858900Y921683D01*
X857825Y922129D01*
X856858Y922775D01*
X856036Y923598D01*
X855389Y924565D01*
X854944Y925639D01*
X854717Y926780D01*
Y927362D01*
Y927944D01*
X854944Y929085D01*
X855389Y930159D01*
X856036Y931126D01*
X856858Y931949D01*
X857825Y932595D01*
X858900Y933041D01*
X860041Y933267D01*
X861204D01*
X862345Y933041D01*
D02*
G37*
G36*
X715101D02*
X716176Y932595D01*
X717143Y931949D01*
X717966Y931126D01*
X718612Y930159D01*
X719057Y929085D01*
X719284Y927944D01*
Y927362D01*
Y926780D01*
X719057Y925639D01*
X718612Y924565D01*
X717966Y923598D01*
X717143Y922775D01*
X716176Y922129D01*
X715101Y921683D01*
X713960Y921457D01*
X712797D01*
X711656Y921683D01*
X710581Y922129D01*
X709614Y922775D01*
X708791Y923598D01*
X708145Y924565D01*
X707700Y925639D01*
X707473Y926780D01*
Y927362D01*
Y927944D01*
X707700Y929085D01*
X708145Y930159D01*
X708791Y931126D01*
X709614Y931949D01*
X710581Y932595D01*
X711656Y933041D01*
X712797Y933267D01*
X713960D01*
X715101Y933041D01*
D02*
G37*
D71*
X713960Y933267D02*
X715101Y933041D01*
X716176Y932595D01*
X717143Y931949D01*
X717966Y931126D01*
X718612Y930159D01*
X719057Y929085D01*
X719284Y927944D01*
Y927362D02*
Y927944D01*
Y926780D02*
Y927362D01*
X719057Y925639D02*
X719284Y926780D01*
X718612Y924565D02*
X719057Y925639D01*
X717966Y923598D02*
X718612Y924565D01*
X717143Y922775D02*
X717966Y923598D01*
X716176Y922129D02*
X717143Y922775D01*
X715101Y921683D02*
X716176Y922129D01*
X713960Y921457D02*
X715101Y921683D01*
X712797Y921457D02*
X713960D01*
X711656Y921683D02*
X712797Y921457D01*
X710581Y922129D02*
X711656Y921683D01*
X709614Y922775D02*
X710581Y922129D01*
X708791Y923598D02*
X709614Y922775D01*
X708145Y924565D02*
X708791Y923598D01*
X707700Y925639D02*
X708145Y924565D01*
X707473Y926780D02*
X707700Y925639D01*
X707473Y926780D02*
Y927362D01*
Y927944D01*
X707700Y929085D01*
X708145Y930159D01*
X708791Y931126D01*
X709614Y931949D01*
X710581Y932595D01*
X711656Y933041D01*
X712797Y933267D01*
X713960D01*
X861204D02*
X862345Y933041D01*
X863420Y932595D01*
X864387Y931949D01*
X865210Y931126D01*
X865856Y930159D01*
X866301Y929085D01*
X866528Y927944D01*
Y927362D02*
Y927944D01*
Y926780D02*
Y927362D01*
X866301Y925639D02*
X866528Y926780D01*
X865856Y924565D02*
X866301Y925639D01*
X865210Y923598D02*
X865856Y924565D01*
X864387Y922775D02*
X865210Y923598D01*
X863420Y922129D02*
X864387Y922775D01*
X862345Y921683D02*
X863420Y922129D01*
X861204Y921457D02*
X862345Y921683D01*
X860041Y921457D02*
X861204D01*
X858900Y921683D02*
X860041Y921457D01*
X857825Y922129D02*
X858900Y921683D01*
X856858Y922775D02*
X857825Y922129D01*
X856036Y923598D02*
X856858Y922775D01*
X855389Y924565D02*
X856036Y923598D01*
X854944Y925639D02*
X855389Y924565D01*
X854717Y926780D02*
X854944Y925639D01*
X854717Y926780D02*
Y927362D01*
Y927944D01*
X854944Y929085D01*
X855389Y930159D01*
X856036Y931126D01*
X856858Y931949D01*
X857825Y932595D01*
X858900Y933041D01*
X860041Y933267D01*
X861204D01*
X713960Y1063188D02*
X715101Y1062961D01*
X716176Y1062516D01*
X717143Y1061870D01*
X717966Y1061047D01*
X718612Y1060080D01*
X719057Y1059006D01*
X719284Y1057865D01*
Y1057283D02*
Y1057865D01*
Y1056701D02*
Y1057283D01*
X719057Y1055560D02*
X719284Y1056701D01*
X718612Y1054486D02*
X719057Y1055560D01*
X717966Y1053518D02*
X718612Y1054486D01*
X717143Y1052696D02*
X717966Y1053518D01*
X716176Y1052050D02*
X717143Y1052696D01*
X715101Y1051604D02*
X716176Y1052050D01*
X713960Y1051377D02*
X715101Y1051604D01*
X712797Y1051377D02*
X713960D01*
X711656Y1051604D02*
X712797Y1051377D01*
X710581Y1052050D02*
X711656Y1051604D01*
X709614Y1052696D02*
X710581Y1052050D01*
X708791Y1053518D02*
X709614Y1052696D01*
X708145Y1054486D02*
X708791Y1053518D01*
X707700Y1055560D02*
X708145Y1054486D01*
X707473Y1056701D02*
X707700Y1055560D01*
X707473Y1056701D02*
Y1057283D01*
Y1057865D01*
X707700Y1059006D01*
X708145Y1060080D01*
X708791Y1061047D01*
X709614Y1061870D01*
X710581Y1062516D01*
X711656Y1062961D01*
X712797Y1063188D01*
X713960D01*
X861204D02*
X862345Y1062961D01*
X863420Y1062516D01*
X864387Y1061870D01*
X865210Y1061047D01*
X865856Y1060080D01*
X866301Y1059006D01*
X866528Y1057865D01*
Y1057283D02*
Y1057865D01*
Y1056701D02*
Y1057283D01*
X866301Y1055560D02*
X866528Y1056701D01*
X865856Y1054486D02*
X866301Y1055560D01*
X865210Y1053518D02*
X865856Y1054486D01*
X864387Y1052696D02*
X865210Y1053518D01*
X863420Y1052050D02*
X864387Y1052696D01*
X862345Y1051604D02*
X863420Y1052050D01*
X861204Y1051377D02*
X862345Y1051604D01*
X860041Y1051377D02*
X861204D01*
X858900Y1051604D02*
X860041Y1051377D01*
X857825Y1052050D02*
X858900Y1051604D01*
X856858Y1052696D02*
X857825Y1052050D01*
X856036Y1053518D02*
X856858Y1052696D01*
X855389Y1054486D02*
X856036Y1053518D01*
X854944Y1055560D02*
X855389Y1054486D01*
X854717Y1056701D02*
X854944Y1055560D01*
X854717Y1056701D02*
Y1057283D01*
Y1057865D01*
X854944Y1059006D01*
X855389Y1060080D01*
X856036Y1061047D01*
X856858Y1061870D01*
X857825Y1062516D01*
X858900Y1062961D01*
X860041Y1063188D01*
X861204D01*
X935000Y516000D02*
Y1075000D01*
X640000D02*
X935000D01*
X640000Y516000D02*
Y1075000D01*
Y516000D02*
X935000D01*
D72*
X928000Y906614D02*
D03*
Y933386D02*
D03*
D73*
X860126Y580000D02*
D03*
D74*
X868000D02*
D03*
D75*
X770992Y523472D02*
D03*
X805008D02*
D03*
D76*
X770992Y539221D02*
D03*
X805008D02*
D03*
D77*
X792000Y925000D02*
D03*
X782000D02*
D03*
X772000D02*
D03*
D78*
X802000Y925000D02*
D03*
D79*
X685289Y610213D02*
D03*
X869825Y733775D02*
D03*
X799475Y733633D02*
D03*
X729475D02*
D03*
X698441Y619941D02*
D03*
X695200Y617500D02*
D03*
X715300Y619700D02*
D03*
X718898Y622800D02*
D03*
X678400Y676100D02*
D03*
X676800Y687900D02*
D03*
X680500Y691157D02*
D03*
X868975Y898732D02*
D03*
X868825Y843275D02*
D03*
X905100Y863055D02*
D03*
X898722Y841213D02*
D03*
X885025Y841269D02*
D03*
X886975Y866172D02*
D03*
X891025Y841269D02*
D03*
X914975Y989633D02*
D03*
Y1044633D02*
D03*
X907800Y910200D02*
D03*
X888100Y882300D02*
D03*
X907800Y920043D02*
D03*
X885100Y878800D02*
D03*
X730200Y583600D02*
D03*
X684800Y582700D02*
D03*
X838500Y558000D02*
D03*
X820500D02*
D03*
X829500D02*
D03*
X811500D02*
D03*
X887868Y547000D02*
D03*
X868000Y586500D02*
D03*
X668525Y947268D02*
D03*
X681269Y605475D02*
D03*
X697300Y593500D02*
D03*
X700400Y588900D02*
D03*
X681269Y598475D02*
D03*
X692600Y588300D02*
D03*
X712633Y605525D02*
D03*
X668525Y881769D02*
D03*
X799825Y898775D02*
D03*
X729825D02*
D03*
X868825Y788775D02*
D03*
X799475Y788633D02*
D03*
X729475D02*
D03*
X799825Y843775D02*
D03*
X729475Y843350D02*
D03*
X779400Y904000D02*
D03*
X779200Y908300D02*
D03*
M02*
