M48
;Layer_Color=9474304
;FILE_FORMAT=2:5
INCH,LZ
;TYPE=PLATED
T01F00S00C0.01200
T03F00S00C0.03150
T04F00S00C0.03937
;TYPE=NON_PLATED
T05F00S00C0.03937
%
T01
X0782Y0524
Y053
X0788Y0527
X0794Y053
Y0524
X08Y0522
Y0526
Y053
Y0534
X0800549Y0545951
X0805Y0545622
X0795844Y0555097
X07935Y056
Y0565
Y05705
Y0575
X07845
Y057
X0784549Y0565
X07845Y056
X0782Y0555
X08115Y0558
X0808098Y0561721
X08205Y0558
X08295
X08385
X084Y0565
X0845
X085
X0845Y057
X0846Y0578
Y0582
X0842Y058
X085
Y0576
X0854Y0574
Y0578
Y0582
Y0586
X085Y0584
X0860126Y0586574
X0868Y05865
X088Y05695
X08684Y05543
X08595Y05435
X0856Y054
X0852
Y0536
X0848
Y054
Y0544
X0844
Y0548
X0848
X084
Y0544
X0844Y054
X0836Y0548
X0856186Y0536048
X0887868Y0547
X0775352Y0545951
X0776Y0534
Y053
Y0526
Y0522
X075085Y0546258
X0719551
X0700301Y05463
X0669002
X06848Y05827
X06926Y05883
X07004Y05889
X06973Y05935
X0691441Y0598441
Y06055
X0681269Y0605475
Y0598475
X0678571Y0609953
X0674437
X0685289Y0610213
X0681917Y0617937
X0678429Y0618079
Y0621425
Y0624772
X06952Y06175
X0698441Y0619941
X07153Y06197
X0718898Y06228
X0729555Y0609953
X0712633Y0605525
X0712Y0597
Y05885
X07302Y05836
X0749304Y05771
X0743Y0639
Y0647
X0734
Y0639
X0712484Y0641504
X07052Y06447
Y06382
X06988Y06383
X06987Y06448
X06955Y0651992
X0701996
X0708492
Y0631016
X0701996
X06955
X0691508Y0641504
X0678429
Y0638158
Y0634811
Y0631465
Y0628118
Y064485
Y0648197
Y0651543
Y065489
Y0658236
Y0661583
X0678465Y0664965
X0685264Y0665071
X068861
X06784Y06761
X0674437Y0673055
X06768Y06879
X06805Y0691157
X070285Y0695758
X0734045Y0695863
X0733547Y0669063
X0773201Y06959
X077285Y0750758
X073415
X0735475Y0733633
X0729475
X070285Y0750758
X080415
X0805475Y0733633
X0799475
X08045Y06959
X0843201
X08746Y0697
X0875825Y0733775
X0869825
X08735Y07509
X0842201
Y08054
X08735
X0874825Y0788775
X0868825
Y0843275
X0874825
X0885025Y0841269
X0891025
X0898722Y0841213
X0890975Y0852172
X0884975
X0883269Y0858975
X08737Y08595
X0886975Y0866172
X08851Y08788
X08881Y08823
X0875Y0898
X0868975Y0898732
X09078Y09102
Y0920043
X09051Y0863055
Y0854
X09234Y0845
X084235Y0860856
X08045Y08609
X0805825Y0843775
X0799825
X08045Y08059
X0805475Y0788633
X0799475
X0799825Y0898775
X0805825
X0801432Y0912025
X0802Y0918
X0807974Y0923974
Y0927974
Y0931974
X0804Y0932
X0799974Y0931974
X0795974
X0797974Y0935974
X0801974
X0805974
X0811974Y0929974
Y0925974
X0815974Y0927974
X07792Y09083
X07794Y0904
X07358Y08988
X0729825Y0898775
X07345Y08609
X0735475Y084335
X0729475
X07345Y0805616
X0735475Y0788633
X0729475
X0703201Y0805616
Y08609
X0668525Y0881769
X06605Y0881508
X0644213Y08833
Y08993
X0773201Y08609
Y08059
X0668525Y0947268
X06605Y0947008
X06443Y09483
Y09643
X0801974Y0943974
X0799974Y0939974
X0803974
X088835Y0951758
X091965
X0920975Y0989633
X0914975
X092Y10069
X0888701
X0914975Y1044633
X0920676Y1044632
T03
X0860126Y058
X0868
T04
X0782Y0925
X0792
X0802Y0925
X0772Y0925
T05
X0928Y0906614
Y0933386
M30
